<?xml version="1.0" encoding="UTF-8" standalone="no"?>
<!-- Created with Inkscape (http://www.inkscape.org/) -->

<svg
   width="29.76827mm"
   height="40.89056mm"
   viewBox="0 0 29.76827 40.89056"
   version="1.1"
   id="svg1"
   inkscape:version="1.4.3 (0d15f75, 2025-12-25)"
   sodipodi:docname="amethyst.svg"
   xmlns:inkscape="http://www.inkscape.org/namespaces/inkscape"
   xmlns:sodipodi="http://sodipodi.sourceforge.net/DTD/sodipodi-0.dtd"
   xmlns="http://www.w3.org/2000/svg"
   xmlns:svg="http://www.w3.org/2000/svg">
  <sodipodi:namedview
     id="namedview1"
     pagecolor="#ffffff"
     bordercolor="#000000"
     borderopacity="0.25"
     inkscape:showpageshadow="2"
     inkscape:pageopacity="0.0"
     inkscape:pagecheckerboard="0"
     inkscape:deskcolor="#d1d1d1"
     inkscape:document-units="mm"
     inkscape:zoom="2.0535659"
     inkscape:cx="21.913102"
     inkscape:cy="103.9655"
     inkscape:window-width="1920"
     inkscape:window-height="1017"
     inkscape:window-x="-8"
     inkscape:window-y="-8"
     inkscape:window-maximized="1"
     inkscape:current-layer="g144" />
  <defs
     id="defs1" />
  <g
     inkscape:label="Layer 1"
     inkscape:groupmode="layer"
     id="layer1"
     transform="translate(-121.44374,-40.481247)">
    <g
       id="g144"
       transform="matrix(0.26458333,0,0,0.26458333,103.63808,-103.52802)">
      <polygon
         style="fill:#b96fde;fill-opacity:0.80000001;opacity:1"
         points="92.67,674.055 67.297,698.834 67.297,544.287 92.67,569.066 "
         id="polygon139" />
      <polygon
         style="fill:#9e55c2;fill-opacity:0.80000001;opacity:1"
         points="179.807,698.834 67.297,698.834 92.67,674.055 154.433,674.055 "
         id="polygon140" />
      <polygon
         style="fill:#b96fde;fill-opacity:0.80000001;opacity:1"
         points="179.807,698.834 154.433,674.055 154.433,569.066 179.807,544.287 "
         id="polygon141" />
      <polygon
         style="fill:#d089f5;fill-opacity:0.80000001;opacity:1"
         points="154.433,569.066 92.67,569.066 67.297,544.287 179.807,544.287 "
         id="polygon142" />
      <rect
         x="92.669998"
         y="569.06598"
         style="fill:#8c4aad;fill-opacity:0.80000001;opacity:1"
         width="61.763"
         height="104.988"
         id="rect142" />
      <rect
         x="99.064003"
         y="574.06598"
         style="fill:#b96fde;fill-opacity:0.80000001;opacity:1"
         width="48.974998"
         height="94.987999"
         id="rect143" />
      <polygon
         style="fill:#ffffff;opacity:1;fill-opacity:0.80000001"
         points="95.97,570.766 111.342,574.066 95.97,577.367 92.67,592.738 89.371,577.367 73.998,574.066 89.371,570.766 92.669,555.394 "
         id="polygon143" />
      <polygon
         style="fill:#ffffff;opacity:1;fill-opacity:0.80000001"
         points="156.063,672.424 163.655,674.055 156.063,675.685 154.433,683.277 152.803,675.685 145.211,674.055 152.803,672.424 154.432,664.832 "
         id="polygon144" />
    </g>
  </g>
</svg>
