<?xml version="1.0" encoding="UTF-8" standalone="no"?>
<!-- Generator: Adobe Illustrator 27.5.0, SVG Export Plug-In . SVG Version: 6.00 Build 0)  -->

<svg
   version="1.1"
   x="0px"
   y="0px"
   viewBox="0 0 500 500"
   style="enable-background:new 0 0 500 500;"
   xml:space="preserve"
   id="svg94"
   sodipodi:docname="bg-mountains.svg"
   inkscape:version="1.4.3 (0d15f75, 2025-12-25)"
   xmlns:inkscape="http://www.inkscape.org/namespaces/inkscape"
   xmlns:sodipodi="http://sodipodi.sourceforge.net/DTD/sodipodi-0.dtd"
   xmlns:xlink="http://www.w3.org/1999/xlink"
   xmlns="http://www.w3.org/2000/svg"
   xmlns:svg="http://www.w3.org/2000/svg"><defs
   id="defs94" /><sodipodi:namedview
   id="namedview94"
   pagecolor="#ffffff"
   bordercolor="#000000"
   borderopacity="0.25"
   inkscape:showpageshadow="2"
   inkscape:pageopacity="0.0"
   inkscape:pagecheckerboard="0"
   inkscape:deskcolor="#d1d1d1"
   inkscape:zoom="1.1525841"
   inkscape:cx="193.47829"
   inkscape:cy="274.60035"
   inkscape:window-width="1920"
   inkscape:window-height="1017"
   inkscape:window-x="-8"
   inkscape:window-y="-8"
   inkscape:window-maximized="1"
   inkscape:current-layer="g62" />

<g
   id="BACKGROUND_1">
	<g
   id="g62">
		<defs
   id="defs1">
			<rect
   id="XMLID_6_"
   width="500"
   height="500" />
		</defs>
		<path
   id="use1"
   style="fill:#9ae4e9"
   d="M 0,0 H 500 V 500 H 0 Z" />
		<clipPath
   id="XMLID_00000018215043662158049990000003061417624202454458_">
			<use
   xlink:href="#XMLID_6_"
   style="overflow:visible;"
   id="use2" />
		</clipPath>
		<g
   style="clip-path:url(#XMLID_00000018215043662158049990000003061417624202454458_);"
   clip-path="url(#XMLID_00000018215043662158049990000003061417624202454458_)"
   id="g61">
			<g
   id="XMLID_17_"
   style="opacity:0.9;">
				
					<ellipse
   id="XMLID_19_"
   transform="matrix(0.7071 -0.7071 0.7071 0.7071 4.7173 400.5875)"
   style="opacity:0.1;fill:#FFFFFF;"
   cx="485.911"
   cy="194.6"
   rx="87.91"
   ry="87.91" />
				
					<linearGradient
   id="XMLID_00000075847828986387908460000008331238445367900592_"
   gradientUnits="userSpaceOnUse"
   x1="485.9105"
   y1="250.5513"
   x2="485.9105"
   y2="130.0498">
					<stop
   offset="0"
   style="stop-color:#FFFFFF;stop-opacity:0"
   id="stop2" />
					<stop
   offset="1"
   style="stop-color:#FFFFFF"
   id="stop3" />
				</linearGradient>
				
					<circle
   id="XMLID_18_"
   style="fill:url(#XMLID_00000075847828986387908460000008331238445367900592_);"
   cx="485.911"
   cy="194.6"
   r="62.556" />
			</g>
			<path
   style="fill:#60C0C1;"
   d="M-124.999,170.51c0,0,1.342-1.582,3.865-1.889c6.417-0.782,12.427,6.135,21.927,5.593     c18.812-1.073,40.546-20.472,59.208-17.875c11.77,1.638,32.973,15.727,44.787,17.006c5.713,0.619,11.9-3.549,16.838-3.465     c9.708,0.167,13.496,9.735,19.75,10.833c9.25,1.625,10.375-5.375,26.625-4.875c17.953,0.552,34.393,28.681,51.938,32.528     c23.812,5.222,25.52-6.069,44.562-7.278c51.167-3.25,57.583,23.583,71.654,30.608c7.866,3.927,18.198-0.797,24.194,0     c12.985,1.725,18.012,12.02,28.946,12.097c6.456,0.045,14.877-2.279,19.873-2.16c8.666,0.205,19.083,5.955,30.583,6.455     c28.553,1.241,72.746-37.077,109-40c56.25-4.534,81.927,21.373,91.25,25.466c27.333,12,48.867-29.333,85-15.716v188.25     l-750,12.509L-124.999,170.51z"
   id="path3" />
			<path
   style="fill:#2F9E93;"
   d="M-124.999,336.931L7.428,404.498H625v-172c-72.557,8.529-86.979,54.938-120,62     c-22.036,4.713-70.515-11.461-94.215-10.831c-25.582,0.679-73.311,24.39-98.785,26.831c-31.219,2.992-92.734-16.553-124-19     c-78.24-6.123-313,24.002-313,24.002V336.931z"
   id="path4" />
			<path
   style="fill:#01897B;"
   d="M-124.999,214.028c8.434-3.473,19.27-6.605,27.914-4.826     c42.752,8.798,55.38,54.854,107.006,55.335c19.329,0.18,39.079-14.704,73.294,12.637c9.4,7.511,18.868-1.229,32.285-1.229     c19.008,0,24.412,13.698,29.838,17.26c33.333,21.887,272.557,49.972,323.249,122.219c2.978,4.244,0,20.737,0,20.737     l-593.587-5.105L-124.999,214.028z"
   id="path5" />
			<g
   id="g14">
				<path
   style="fill:#025A49;"
   d="M37.48,332.147c0,0,9.112,3.371,10.215,1.053c1.642-3.452-10.813-10.81-10.813-10.81      s7.811,3.194,8.559,1.116c1.169-3.248-11.119-8.2-11.119-8.2s6.693,1.621,7.344-0.096c0.879-2.32-7.344-6.674-7.344-6.674      s5.55,2.261,6.196,0.837c1.127-2.486-7.612-7.124-7.612-7.124s3.845,0.441,4.167-0.723c0.559-2.016-6.507-5.263-6.507-5.263      s4.232,0.618,4.593-0.478c0.81-2.461-5.478-6.268-5.478-6.268s2.109,0.334,2.63-0.749c1.082-2.25-3.096-6.669-5.712-6.533      c-2.616-0.135-6.793,4.283-5.712,6.533c0.521,1.083,2.63,0.749,2.63,0.749s-6.288,3.807-5.478,6.268      c0.361,1.097,4.593,0.478,4.593,0.478s-7.066,3.247-6.507,5.263c0.323,1.164,4.167,0.723,4.167,0.723s-8.74,4.638-7.612,7.124      c0.646,1.424,6.196-0.837,6.196-0.837s-8.224,4.354-7.344,6.674c0.651,1.717,7.344,0.096,7.344,0.096s-12.288,4.951-11.119,8.2      c0.748,2.079,8.559-1.116,8.559-1.116s-12.455,7.358-10.813,10.81c1.103,2.318,10.215-1.053,10.215-1.053      S3.38,339.199,4.738,342.769c1.902,4.997,16.44,1.545,21.861-2.488c5.421,4.033,19.959,7.486,21.861,2.488      C49.819,339.199,37.48,332.147,37.48,332.147z"
   id="path6" />
				<path
   style="fill:#025A49;"
   d="M108.682,331.924c0,0,6.769,2.504,7.588,0.782c1.22-2.564-8.033-8.03-8.033-8.03      s5.803,2.373,6.358,0.829c0.868-2.413-8.26-6.091-8.26-6.091s4.972,1.204,5.456-0.071c0.653-1.723-5.456-4.958-5.456-4.958      s4.123,1.68,4.603,0.622c0.837-1.847-5.655-5.292-5.655-5.292s2.856,0.328,3.096-0.537c0.415-1.498-4.834-3.91-4.834-3.91      s3.144,0.459,3.412-0.355c0.602-1.828-4.069-4.656-4.069-4.656s1.567,0.248,1.953-0.557c0.804-1.671-2.3-4.954-4.243-4.853      c-1.943-0.1-5.046,3.182-4.243,4.853c0.387,0.805,1.954,0.557,1.954,0.557s-4.671,2.828-4.07,4.656      c0.268,0.815,3.412,0.355,3.412,0.355s-5.249,2.412-4.834,3.91c0.24,0.865,3.096,0.537,3.096,0.537s-6.492,3.445-5.655,5.292      c0.48,1.057,4.603-0.622,4.603-0.622s-6.109,3.235-5.456,4.958c0.483,1.276,5.456,0.071,5.456,0.071s-9.128,3.678-8.26,6.091      c0.555,1.544,6.358-0.829,6.358-0.829s-9.252,5.466-8.032,8.03c0.819,1.722,7.588-0.782,7.588-0.782s-9.166,5.239-8.157,7.89      c1.413,3.712,12.213,4.838,16.239,1.842c4.027,2.996,14.826,1.87,16.239-1.842C117.848,337.163,108.682,331.924,108.682,331.924      z"
   id="path7" />
				<path
   style="fill:#025A49;"
   d="M147.802,339.574c0,0,6.769,2.504,7.588,0.782c1.22-2.564-8.032-8.03-8.032-8.03      s5.803,2.373,6.358,0.829c0.868-2.413-8.26-6.091-8.26-6.091s4.972,1.204,5.456-0.071c0.653-1.723-5.456-4.958-5.456-4.958      s4.123,1.679,4.603,0.622c0.838-1.847-5.655-5.292-5.655-5.292s2.856,0.328,3.096-0.537c0.415-1.498-4.834-3.91-4.834-3.91      s3.144,0.459,3.412-0.355c0.602-1.828-4.07-4.656-4.07-4.656s1.567,0.248,1.954-0.557c0.803-1.671-2.3-4.954-4.243-4.853      c-1.943-0.1-5.046,3.182-4.243,4.853c0.387,0.805,1.954,0.557,1.954,0.557s-4.671,2.828-4.069,4.656      c0.268,0.815,3.412,0.355,3.412,0.355s-5.249,2.412-4.834,3.91c0.24,0.865,3.096,0.537,3.096,0.537s-6.492,3.445-5.655,5.292      c0.479,1.057,4.603-0.622,4.603-0.622s-6.109,3.235-5.456,4.958c0.483,1.275,5.456,0.071,5.456,0.071s-9.128,3.678-8.26,6.091      c0.556,1.544,6.358-0.829,6.358-0.829s-9.252,5.466-8.032,8.03c0.819,1.722,7.588-0.782,7.588-0.782s-9.166,5.239-8.157,7.89      c1.413,3.712,12.213,1.147,16.239-1.848c4.027,2.996,14.826,5.561,16.239,1.848      C156.969,344.812,147.802,339.574,147.802,339.574z"
   id="path8" />
				<path
   style="fill:#025A49;"
   d="M413.042,336.345c0,0,6.769,2.504,7.588,0.782c1.22-2.564-8.033-8.03-8.033-8.03      s5.803,2.373,6.358,0.829c0.868-2.413-8.26-6.091-8.26-6.091s4.972,1.204,5.456-0.071c0.653-1.723-5.456-4.958-5.456-4.958      s4.123,1.68,4.603,0.622c0.837-1.847-5.655-5.292-5.655-5.292s2.856,0.328,3.096-0.537c0.415-1.498-4.834-3.91-4.834-3.91      s3.144,0.459,3.412-0.355c0.602-1.828-4.069-4.656-4.069-4.656s1.567,0.248,1.953-0.556c0.804-1.671-2.3-4.954-4.243-4.853      c-1.943-0.1-5.046,3.182-4.243,4.853c0.387,0.805,1.954,0.556,1.954,0.556s-4.671,2.828-4.07,4.656      c0.268,0.815,3.412,0.355,3.412,0.355s-5.249,2.412-4.834,3.91c0.24,0.865,3.096,0.537,3.096,0.537s-6.492,3.445-5.655,5.292      c0.48,1.057,4.603-0.622,4.603-0.622s-6.109,3.235-5.456,4.958c0.484,1.276,5.456,0.071,5.456,0.071s-9.128,3.678-8.26,6.091      c0.556,1.544,6.358-0.829,6.358-0.829s-9.252,5.466-8.032,8.03c0.819,1.722,7.588-0.782,7.588-0.782s-9.166,5.239-8.157,7.89      c1.413,3.712,12.212,1.147,16.239-1.848c4.027,2.996,14.827,5.561,16.239,1.848      C422.208,341.584,413.042,336.345,413.042,336.345z"
   id="path9" />
				<path
   style="fill:#025A49;"
   d="M454.178,331.931c0,0,8.666,3.206,9.715,1.001c1.561-3.283-10.284-10.281-10.284-10.281      s7.429,3.038,8.14,1.061c1.112-3.089-10.575-7.798-10.575-7.798s6.366,1.542,6.985-0.091c0.836-2.206-6.985-6.348-6.985-6.348      s5.279,2.15,5.893,0.796c1.072-2.364-7.239-6.775-7.239-6.775s3.656,0.42,3.963-0.687c0.532-1.917-6.188-5.005-6.188-5.005      s4.025,0.588,4.368-0.455c0.77-2.341-5.21-5.961-5.21-5.961s2.006,0.318,2.501-0.712c1.029-2.14-2.944-6.342-5.432-6.214      c-2.488-0.129-6.461,4.074-5.432,6.214c0.495,1.03,2.501,0.712,2.501,0.712s-5.98,3.62-5.21,5.961      c0.343,1.043,4.368,0.455,4.368,0.455s-6.72,3.088-6.188,5.005c0.307,1.107,3.963,0.687,3.963,0.687s-8.312,4.411-7.239,6.775      c0.614,1.354,5.893-0.796,5.893-0.796s-7.821,4.141-6.985,6.348c0.619,1.633,6.985,0.091,6.985,0.091      s-11.686,4.709-10.575,7.798c0.711,1.977,8.14-1.061,8.14-1.061s-11.845,6.998-10.284,10.281      c1.049,2.205,9.715-1.001,9.715-1.001s-11.735,6.707-10.443,10.102c1.809,4.753,15.635,1.469,20.791-2.367      c5.155,3.835,18.982,7.119,20.791,2.367C465.913,338.638,454.178,331.931,454.178,331.931z"
   id="path10" />
				<path
   style="fill:#025A49;"
   d="M277.752,335.72c0,0,4.48,1.657,5.022,0.517c0.807-1.697-5.316-5.314-5.316-5.314      s3.84,1.57,4.208,0.548c0.575-1.597-5.466-4.031-5.466-4.031s3.29,0.797,3.61-0.047c0.432-1.141-3.61-3.281-3.61-3.281      s2.729,1.111,3.046,0.412c0.554-1.222-3.742-3.502-3.742-3.502s1.89,0.217,2.049-0.355c0.275-0.991-3.199-2.587-3.199-2.587      s2.081,0.304,2.258-0.235c0.398-1.21-2.693-3.081-2.693-3.081s1.037,0.164,1.293-0.368c0.532-1.106-1.522-3.278-2.808-3.212      c-1.286-0.066-3.34,2.106-2.808,3.212c0.256,0.532,1.293,0.368,1.293,0.368s-3.091,1.871-2.693,3.081      c0.177,0.539,2.258,0.235,2.258,0.235s-3.474,1.596-3.199,2.587c0.159,0.572,2.049,0.355,2.049,0.355s-4.296,2.28-3.742,3.502      c0.317,0.7,3.046-0.412,3.046-0.412s-4.043,2.141-3.61,3.281c0.32,0.844,3.61,0.047,3.61,0.047s-6.041,2.434-5.466,4.031      c0.368,1.022,4.208-0.548,4.208-0.548s-6.123,3.617-5.316,5.314c0.542,1.14,5.022-0.517,5.022-0.517s-6.066,3.467-5.398,5.222      c0.935,2.457,8.082,0.759,10.747-1.223c2.665,1.982,9.812,3.68,10.747,1.223C283.818,339.187,277.752,335.72,277.752,335.72z"
   id="path11" />
				<path
   style="fill:#025A49;"
   d="M300.348,339.297c0,0,4.48,1.657,5.022,0.518c0.807-1.697-5.316-5.314-5.316-5.314      s3.84,1.57,4.208,0.548c0.575-1.597-5.466-4.031-5.466-4.031s3.29,0.797,3.611-0.047c0.432-1.141-3.611-3.281-3.611-3.281      s2.729,1.111,3.046,0.412c0.554-1.222-3.742-3.502-3.742-3.502s1.89,0.217,2.049-0.355c0.275-0.991-3.199-2.587-3.199-2.587      s2.08,0.304,2.258-0.235c0.398-1.21-2.693-3.081-2.693-3.081s1.037,0.164,1.293-0.368c0.532-1.106-1.522-3.278-2.808-3.212      c-1.286-0.066-3.34,2.106-2.808,3.212c0.256,0.532,1.293,0.368,1.293,0.368s-3.091,1.871-2.693,3.081      c0.177,0.539,2.258,0.235,2.258,0.235s-3.474,1.596-3.199,2.587c0.159,0.572,2.049,0.355,2.049,0.355s-4.296,2.28-3.742,3.502      c0.317,0.7,3.046-0.412,3.046-0.412s-4.043,2.141-3.611,3.281c0.32,0.844,3.611,0.047,3.611,0.047s-6.041,2.434-5.466,4.031      c0.368,1.022,4.208-0.548,4.208-0.548s-6.123,3.617-5.316,5.314c0.542,1.14,5.022-0.518,5.022-0.518s-6.066,3.467-5.398,5.222      c0.935,2.457,8.082,0.759,10.747-1.223c2.665,1.982,9.812,3.68,10.747,1.223C306.414,342.764,300.348,339.297,300.348,339.297z"
   id="path12" />
				<path
   style="fill:#025A49;"
   d="M333.328,338.98c0,0,6.555,2.425,7.348,0.757c1.181-2.483-7.778-7.776-7.778-7.776      s5.619,2.298,6.157,0.802c0.841-2.337-7.998-5.898-7.998-5.898s4.815,1.166,5.283-0.069c0.633-1.669-5.283-4.801-5.283-4.801      s3.993,1.626,4.457,0.602c0.811-1.788-5.475-5.124-5.475-5.124s2.765,0.317,2.998-0.52c0.402-1.45-4.681-3.786-4.681-3.786      s3.044,0.445,3.304-0.344c0.583-1.77-3.941-4.509-3.941-4.509s1.517,0.24,1.892-0.539c0.778-1.618-2.227-4.797-4.108-4.7      c-1.882-0.097-4.886,3.081-4.108,4.7c0.375,0.779,1.892,0.539,1.892,0.539s-4.523,2.738-3.941,4.509      c0.26,0.789,3.304,0.344,3.304,0.344s-5.083,2.335-4.681,3.786c0.232,0.837,2.997,0.52,2.997,0.52s-6.286,3.336-5.475,5.124      c0.464,1.024,4.457-0.602,4.457-0.602s-5.915,3.132-5.283,4.801c0.468,1.235,5.283,0.069,5.283,0.069s-8.839,3.561-7.998,5.898      c0.538,1.495,6.157-0.802,6.157-0.802s-8.959,5.293-7.778,7.776c0.793,1.668,7.348-0.757,7.348-0.757s-8.876,5.073-7.898,7.64      c1.368,3.595,11.826,1.111,15.725-1.79c3.899,2.901,14.357,5.385,15.725,1.79C342.203,344.053,333.328,338.98,333.328,338.98z"
   id="path13" />
				<path
   style="fill:#025A49;"
   d="M253.348,339.297c0,0,4.48,1.657,5.022,0.518c0.807-1.697-5.316-5.314-5.316-5.314      s3.84,1.57,4.208,0.548c0.575-1.597-5.466-4.031-5.466-4.031s3.291,0.797,3.611-0.047c0.432-1.141-3.611-3.281-3.611-3.281      s2.729,1.111,3.046,0.412c0.554-1.222-3.742-3.502-3.742-3.502s1.89,0.217,2.049-0.355c0.275-0.991-3.199-2.587-3.199-2.587      s2.081,0.304,2.258-0.235c0.398-1.21-2.693-3.081-2.693-3.081s1.037,0.164,1.293-0.368c0.532-1.106-1.522-3.278-2.808-3.212      c-1.286-0.066-3.339,2.106-2.808,3.212c0.256,0.532,1.293,0.368,1.293,0.368s-3.091,1.871-2.693,3.081      c0.177,0.539,2.258,0.235,2.258,0.235s-3.474,1.596-3.199,2.587c0.159,0.572,2.049,0.355,2.049,0.355s-4.296,2.28-3.742,3.502      c0.317,0.7,3.046-0.412,3.046-0.412s-4.043,2.141-3.611,3.281c0.32,0.844,3.611,0.047,3.611,0.047s-6.041,2.434-5.466,4.031      c0.368,1.022,4.208-0.548,4.208-0.548s-6.123,3.617-5.316,5.314c0.542,1.14,5.022-0.518,5.022-0.518s-6.066,3.467-5.398,5.222      c0.935,2.457,8.082,0.759,10.747-1.223c2.665,1.982,9.812,3.68,10.747,1.223C259.414,342.764,253.348,339.297,253.348,339.297z"
   id="path14" />
				<rect
   x="-124.999"
   y="338.918"
   style="fill:#025A49;"
   width="750"
   height="83.582"
   id="rect14" />
			</g>
			<rect
   x="-124.753"
   y="398.25"
   style="fill:#5CAF5D;"
   width="749.753"
   height="101.75"
   id="rect15" />
			<g
   id="g16">
				<linearGradient
   id="SVGID_1_"
   gradientUnits="userSpaceOnUse"
   x1="599.666"
   y1="90.4186"
   x2="599.666"
   y2="42.0274">
					<stop
   offset="0"
   style="stop-color:#FFFFFF;stop-opacity:0"
   id="stop15" />
					<stop
   offset="1"
   style="stop-color:#FFFFFF"
   id="stop16" />
				</linearGradient>
				<path
   style="opacity:0.6;fill:url(#SVGID_1_);"
   d="M687.839,46.941c-34.638-19.069-50.536,19.035-57.363,17.662      c-4.723-0.95-5.669-10.357-19.374-10.199c-16.613,0.191-12.803,9.545-20.556,9.7c-3.559,0.071-8.636-5.8-23.541,0.232      c-29.803,12.06-33.069-18.09-71.625,13.218H703.4C703.78,75.279,707.656,57.85,687.839,46.941z"
   id="path16" />
			</g>
			<g
   style="opacity:0.5;"
   id="g18">
				
					<linearGradient
   id="SVGID_00000094608132414389324650000002639709635131827619_"
   gradientUnits="userSpaceOnUse"
   x1="2561.7002"
   y1="113.1815"
   x2="2561.7002"
   y2="64.7903"
   gradientTransform="matrix(-1 0 0 1 2562.7346 0)">
					<stop
   offset="0"
   style="stop-color:#FFFFFF;stop-opacity:0"
   id="stop17" />
					<stop
   offset="1"
   style="stop-color:#FFFFFF"
   id="stop18" />
				</linearGradient>
				<path
   style="fill:url(#SVGID_00000094608132414389324650000002639709635131827619_);"
   d="M-87.138,69.704      C-52.5,50.634-36.602,88.739-29.775,87.365c4.723-0.95,5.669-10.356,19.374-10.199c16.613,0.191,12.803,9.545,20.556,9.7      c3.559,0.071,8.636-5.799,23.541,0.232c29.803,12.06,33.069-18.09,71.625,13.218H-102.7      C-103.08,98.042-106.955,80.613-87.138,69.704z"
   id="path18" />
			</g>
			<path
   style="fill:#519A50;"
   d="M625,500h-750L-125,385.333C-67.999,388-44.025,407.294-12,418     c21.372,7.144,69.801-0.888,93.333,2c42.069,5.162,77.233,22.729,102.275,28c30.689,6.459,92.407,7.137,122.603-1.333     C461.655,403.063,625,450.125,625,450.125V500z"
   id="path19" />
			
		</g>
	</g>
</g>

</svg>
