<?xml version="1.0" encoding="UTF-8" standalone="no"?>
<!-- Generator: Adobe Illustrator 27.5.0, SVG Export Plug-In . SVG Version: 6.00 Build 0)  -->

<svg
   version="1.1"
   x="0px"
   y="0px"
   viewBox="0 0 500 500"
   style="enable-background:new 0 0 500 500;"
   xml:space="preserve"
   id="svg72"
   sodipodi:docname="bg-sky.svg"
   inkscape:version="1.4.3 (0d15f75, 2025-12-25)"
   xmlns:inkscape="http://www.inkscape.org/namespaces/inkscape"
   xmlns:sodipodi="http://sodipodi.sourceforge.net/DTD/sodipodi-0.dtd"
   xmlns:xlink="http://www.w3.org/1999/xlink"
   xmlns="http://www.w3.org/2000/svg"
   xmlns:svg="http://www.w3.org/2000/svg"><defs
   id="defs72" /><sodipodi:namedview
   id="namedview72"
   pagecolor="#ffffff"
   bordercolor="#000000"
   borderopacity="0.25"
   inkscape:showpageshadow="2"
   inkscape:pageopacity="0.0"
   inkscape:pagecheckerboard="0"
   inkscape:deskcolor="#d1d1d1"
   inkscape:zoom="1.1525841"
   inkscape:cx="192.61068"
   inkscape:cy="280.67367"
   inkscape:window-width="1920"
   inkscape:window-height="1017"
   inkscape:window-x="-8"
   inkscape:window-y="-8"
   inkscape:window-maximized="1"
   inkscape:current-layer="g41" />

<g
   id="BACKGROUND_1">
	<g
   id="g41">
		<rect
   y="-0.327"
   style="fill:#6DB3EB;"
   width="500"
   height="500.327"
   id="rect1" />
		<g
   id="g40">
			<defs
   id="defs1">
				<rect
   id="SVGID_00000020377078820884407100000007379199763205650819_"
   y="-0.327"
   width="500"
   height="499.346" />
			</defs>
			<clipPath
   id="SVGID_00000035490548886314375400000008265183764212503961_">
				<use
   xlink:href="#SVGID_00000020377078820884407100000007379199763205650819_"
   style="overflow:visible;"
   id="use1" />
			</clipPath>
			<g
   style="clip-path:url(#SVGID_00000035490548886314375400000008265183764212503961_);"
   clip-path="url(#SVGID_00000035490548886314375400000008265183764212503961_)"
   id="g8">
				<path
   style="fill:#D7EFF6;"
   d="M254.058,103.72c1.349-2.372,2.13-5.109,2.13-8.032c0-9.003-7.308-16.301-16.322-16.301      c-1.618,0-3.177,0.243-4.652,0.681c-3.391-15.977-17.591-27.967-34.6-27.967c-4.626,0-9.039,0.896-13.089,2.508      c-0.862-13.38-11.995-23.968-25.61-23.968c-10.134,0-18.894,5.866-23.067,14.383c-6.378-6.231-15.103-10.077-24.73-10.077      c-17.179,0-31.492,12.231-34.698,28.448c-2.982-1.034-6.182-1.603-9.517-1.603c-16.028,0-29.022,12.977-29.022,28.984      c0,6.866,2.396,13.17,6.391,18.136c-8.528,4.759-14.298,13.859-14.298,24.309c0,15.372,12.478,27.834,27.87,27.834      c6.701,0,12.849-2.364,17.656-6.299c6.468,8.385,16.616,13.793,28.034,13.793c9.647,0,18.387-3.861,24.768-10.114      c6.48,8.165,16.489,13.409,27.732,13.409c13.165,0,24.642-7.188,30.733-17.844c4.686,5.014,11.357,8.153,18.767,8.153      c9.595,0,17.954-5.261,22.36-13.048c2.793,1.041,5.816,1.613,8.973,1.613c14.177,0,25.67-11.478,25.67-25.637      C265.535,116.164,260.975,108.313,254.058,103.72z"
   id="path1" />
				<path
   style="fill:#B6D8EF;"
   d="M228.635,138.012c-15.5,26.715-39.75,6.741-39.75,6.741c-32.25,33.706-57.5,2.247-57.5,2.247      c-28.75,25.467-51.75-2.996-51.75-2.996s-19.75,13.233-32.365,1.248c-12.615-11.984,0-36.342,0-36.342      c-8.528,4.759-14.298,13.859-14.298,24.309c0,15.372,12.478,27.834,27.87,27.834c6.701,0,12.849-2.364,17.656-6.3      c6.468,8.385,16.616,13.793,28.034,13.793c9.647,0,18.387-3.861,24.768-10.114c6.48,8.165,16.489,13.409,27.732,13.409      c13.165,0,24.642-7.188,30.733-17.844c4.686,5.014,11.357,8.153,18.767,8.153c9.595,0,17.954-5.261,22.36-13.048      c2.793,1.041,5.816,1.613,8.973,1.613c14.177,0,25.671-11.478,25.671-25.637c0-2.39-0.337-4.699-0.95-6.894      C256.29,150.872,228.635,138.012,228.635,138.012z"
   id="path2" />
				<path
   style="fill:#B6D8EF;"
   d="M209.655,118.564c-7.326,4.899-16.976,3.629-22.816-2.59c0.397,0.872,0.867,1.725,1.418,2.547      c5.456,8.138,16.486,10.318,24.635,4.869c8.149-5.449,10.332-16.464,4.876-24.602c-0.551-0.822-1.162-1.581-1.818-2.279      C219.481,104.27,216.981,113.665,209.655,118.564z"
   id="path3" />
				<path
   style="fill:#FFFFFF;"
   d="M191.297,89.963c7.326-4.899,16.976-3.629,22.816,2.59c-0.397-0.872-0.867-1.725-1.418-2.547      c-5.456-8.138-16.486-10.318-24.635-4.869c-8.149,5.449-10.332,16.464-4.876,24.602c0.551,0.822,1.162,1.581,1.818,2.28      C181.471,104.256,183.972,94.861,191.297,89.963z"
   id="path4" />
				<path
   style="fill:#FFFFFF;"
   d="M239.865,79.386c-1.618,0-3.177,0.243-4.652,0.681c-3.391-15.977-17.591-27.967-34.6-27.967      c-4.626,0-9.039,0.896-13.089,2.508c-0.862-13.38-11.995-23.968-25.611-23.968c-10.134,0-18.894,5.866-23.067,14.383      c-6.378-6.231-15.103-10.077-24.73-10.077c-17.179,0-31.492,12.231-34.698,28.448c-2.982-1.034-6.182-1.603-9.517-1.603      c-16.028,0-29.022,12.977-29.022,28.984c0,0.846,0.038,1.683,0.109,2.511c0.032-0.053,19.83-32.58,41.146-21.27      c0,0,18.862-47.292,54.992-20.821c-2.19,5.291-1.781,11.54,1.647,16.654c0.551,0.822,1.162,1.581,1.818,2.28      c-2.428-5.334-1.877-12.01,1.016-16.955c0.131-0.223,0.436-0.951,0.627-1.32c2.883-5.148,10.929-16.433,24.567-12.794      c17.489,4.667,15,23.969,15,23.969s40.333-8.322,48,25.966c0,0,18.052-5.18,26.359,7.516c0.014-0.273,0.027-0.545,0.027-0.821      C256.188,86.685,248.88,79.386,239.865,79.386z"
   id="path5" />
				<path
   style="fill:#B6D8EF;"
   d="M171.817,103.397c-1.935,11.724-12.125,20.668-24.413,20.668      c-12.108,0-22.162-8.691-24.306-20.162c-0.036-0.267-0.057-0.539-0.1-0.804c-1.935,11.724-12.126,20.668-24.413,20.668      c-12.287,0-22.478-8.944-24.413-20.668c-0.217,1.318-0.336,2.669-0.336,4.048c0,13.65,11.08,24.716,24.749,24.716      c8.124,0,15.334-3.91,19.846-9.948c0.336-0.422,4.593-5.544,8.93,0.03v-0.008c4.497,6.192,11.796,10.223,20.042,10.223      c13.668,0,24.749-11.066,24.749-24.716C172.153,106.065,172.035,104.714,171.817,103.397z"
   id="path6" />
				<g
   id="g7">
					<path
   style="fill:#FFFFFF;"
   d="M82.945,83.209c2.244-3.901,5.412-7.361,9.424-9.847c3.977-2.488,9.064-3.709,13.93-2.828       c4.896,0.822,9.16,3.689,12.218,7.184c3.077,3.535,5.167,7.696,6.356,12.037c-2.692-3.608-5.383-7.057-8.581-9.813       c-3.166-2.755-6.788-4.808-10.69-5.47c-3.892-0.691-7.966-0.043-11.776,1.665C89.986,77.807,86.45,80.391,82.945,83.209z"
   id="path7" />
				</g>
			</g>
			<g
   style="clip-path:url(#SVGID_00000035490548886314375400000008265183764212503961_);"
   clip-path="url(#SVGID_00000035490548886314375400000008265183764212503961_)"
   id="g12">
				<path
   style="fill:#D7EFF6;"
   d="M208.175,388.703c-2.395-5.178-6.466-9.421-11.521-12.037c0.464-2.283,0.709-4.645,0.709-7.065      c0-19.511-15.837-35.328-35.374-35.328c-6.873,0-13.284,1.964-18.713,5.352c-6.488-7.845-16.303-12.845-27.287-12.845      c-4.588,0-8.967,0.882-12.99,2.469c-6.544-15.829-22.145-26.973-40.358-26.973c-22.052,0-40.274,16.335-43.224,37.547      c-3.289-1.009-6.781-1.555-10.402-1.555c-18.244,0-33.257,13.794-35.165,31.508c-1.018-0.113-2.05-0.175-3.098-0.175      c-15.392,0-27.87,12.462-27.87,27.834c0,15.372,12.478,27.834,27.87,27.834c5.101,0,9.877-1.375,13.99-3.764      c6.367,9.329,17.09,15.456,29.248,15.456c9.646,0,18.387-3.861,24.768-10.114c6.479,8.165,16.489,13.409,27.732,13.409      c13.165,0,24.642-7.188,30.733-17.844c4.686,5.014,11.357,8.153,18.767,8.153c8.386,0,15.832-4.017,20.517-10.229      c4.194,2.979,9.318,4.737,14.857,4.737c6.403,0,12.254-2.347,16.75-6.219c4.496,3.872,10.347,6.219,16.75,6.219      c5.79,0,11.131-1.916,15.425-5.145c1.965,0.837,4.126,1.302,6.397,1.302c9.015,0,16.322-7.298,16.322-16.301      C223.009,396.429,216.491,389.456,208.175,388.703z"
   id="path8" />
				<path
   style="fill:#B6D8EF;"
   d="M206.686,407.249c-2.271,0-4.433-0.465-6.397-1.302c-4.294,3.229-9.635,5.145-15.425,5.145      c-6.403,0-12.253-2.347-16.75-6.219c-4.497,3.872-10.347,6.219-16.75,6.219c-5.539,0-10.663-1.758-14.857-4.737      c-4.685,6.212-12.13,10.229-20.517,10.229c-7.409,0-14.081-3.139-18.767-8.153c-6.091,10.656-17.568,17.844-30.733,17.844      c-11.243,0-21.252-5.244-27.732-13.409c-6.381,6.253-15.122,10.114-24.768,10.114c-12.158,0-22.88-6.127-29.248-15.456      c-4.112,2.389-8.889,3.764-13.99,3.764c-12.975,0-23.878-8.855-26.983-20.843c-0.579,2.234-0.887,4.576-0.887,6.991      c0,15.372,12.478,27.834,27.87,27.834c5.101,0,9.877-1.375,13.99-3.764c6.367,9.329,17.09,15.456,29.248,15.456      c9.646,0,18.387-3.861,24.768-10.114c6.479,8.165,16.489,13.409,27.732,13.409c13.165,0,24.642-7.188,30.733-17.844      c4.686,5.014,11.357,8.153,18.767,8.153c8.386,0,15.832-4.017,20.517-10.229c4.194,2.979,9.318,4.737,14.857,4.737      c6.403,0,12.254-2.347,16.75-6.219c4.496,3.872,10.347,6.219,16.75,6.219c5.79,0,11.131-1.916,15.425-5.145      c1.965,0.837,4.126,1.302,6.397,1.302c9.015,0,16.322-7.298,16.322-16.301c0-2.507-0.579-4.875-1.592-6.996      C218.795,403.436,213.194,407.249,206.686,407.249z"
   id="path9" />
				<path
   style="fill:#B6D8EF;"
   d="M118.176,371.221c-7.825,5.233-17.582,4.7-23.096-0.863c0.343,0.81,0.761,1.597,1.265,2.348      c4.985,7.436,16.084,8.746,24.788,2.925c8.705-5.821,11.72-16.568,6.734-24.004c-0.504-0.751-1.073-1.437-1.692-2.062      C129.224,356.776,126.001,365.988,118.176,371.221z"
   id="path10" />
				<path
   style="fill:#FFFFFF;"
   d="M161.99,334.274c-6.873,0-13.284,1.964-18.713,5.352c-6.488-7.845-16.303-12.845-27.287-12.845      c-4.588,0-8.967,0.882-12.99,2.469c-6.544-15.829-22.145-26.973-40.358-26.973c-22.052,0-40.274,16.335-43.224,37.547      c-3.289-1.009-6.781-1.555-10.402-1.555c-18.244,0-33.257,13.794-35.165,31.508c-1.018-0.113-2.05-0.175-3.098-0.175      c-14.029,0-25.632,10.353-27.578,23.825c8.739-8.734,26.074-14.786,36.37-14.786c0.965,0,1.917,0.058,2.855,0.161      c1.758-16.326,15.595-29.039,32.41-29.039c0.479,0,0.95,0.033,1.424,0.053c2.323,21.114,17.891,29.861,17.891,29.861      c-15.396-18.613-6.402-39.675-5.893-40.826c6.593-13.194,20.233-22.26,36.002-22.26c14.703,0,27.558,7.88,34.576,19.639      c-1.21,0.465-2.388,1.068-3.511,1.819c-8.149,5.449-10.332,16.464-4.876,24.603c0.551,0.822,1.162,1.581,1.818,2.279      c-3.533-7.761-0.969-16.996,6.356-21.894l2.833-1.586c3.708-1.463,7.744-2.276,11.972-2.276      c10.124,0,19.169,4.608,25.149,11.839c5.004-3.122,10.912-4.932,17.247-4.932c14.689,0,34.686,9.704,41.555,23.041      C197.093,349.833,181.365,334.274,161.99,334.274z"
   id="path11" />
				<path
   style="fill:#B6D8EF;"
   d="M70.206,386.223c-10.737,7.18-24.883,5.318-33.443-3.796c0.582,1.279,1.27,2.528,2.078,3.734      c7.997,11.929,24.163,15.124,36.108,7.137c11.944-7.987,15.144-24.132,7.146-36.06c-0.808-1.205-1.703-2.317-2.665-3.341      C84.608,365.272,80.943,379.043,70.206,386.223z"
   id="path12" />
			</g>
			<g
   style="clip-path:url(#SVGID_00000035490548886314375400000008265183764212503961_);"
   clip-path="url(#SVGID_00000035490548886314375400000008265183764212503961_)"
   id="g18">
				<path
   style="fill:#D7EDF5;"
   d="M574.406,244.85c0.414-24.073-18.792-43.923-42.897-44.336      c-5.627-0.096-11.017,0.887-15.99,2.739c-4.562-13.904-17.535-24.056-33.008-24.321c-11.12-0.191-21.125,4.769-27.746,12.673      c-4.836-18.431-21.458-32.176-41.47-32.519c-15.758-0.27-29.706,7.836-37.593,20.205c-3.964-2.484-8.634-3.955-13.655-4.041      c-14.683-0.252-26.79,11.432-27.042,26.096c-0.033,1.941,0.148,3.834,0.513,5.663c-12.839,2.3-22.684,13.397-22.916,26.915      c-0.076,4.421,0.889,8.617,2.663,12.361c-7.235,6.34-11.869,15.588-12.047,25.956c-0.335,19.508,15.228,35.594,34.762,35.928      c9.645,0.165,18.45-3.545,24.938-9.688c6.338,8.275,16.257,13.69,27.497,13.883c12.352,0.212,23.328-5.93,29.818-15.405      c4.176,6.514,11.432,10.887,19.757,11.03c8.965,0.154,16.858-4.639,21.082-11.855c4.463,4.097,10.384,6.644,16.922,6.756      c7.129,0.122,13.628-2.672,18.36-7.279c3.717,2.212,8.042,3.521,12.679,3.601c9.113,0.156,17.193-4.455,21.87-11.527      C554.603,287.614,573.997,268.625,574.406,244.85z"
   id="path13" />
				<path
   style="fill:#B6D8EF;"
   d="M530.903,270.706c-4.677,7.072-12.757,11.683-21.87,11.527      c-4.637-0.079-8.962-1.388-12.679-3.601c-4.732,4.607-11.23,7.401-18.36,7.279c-6.538-0.112-12.459-2.659-16.922-6.756      c-4.224,7.216-12.118,12.009-21.082,11.855c-8.324-0.143-15.58-4.515-19.756-11.03c-6.49,9.475-17.466,15.616-29.818,15.405      c-11.241-0.193-21.159-5.607-27.497-13.883c-6.488,6.143-15.293,9.853-24.938,9.688c-16.389-0.281-29.979-11.652-33.733-26.827      c-0.624,2.528-0.983,5.163-1.029,7.877c-0.335,19.508,15.228,35.594,34.762,35.928c9.645,0.165,18.45-3.545,24.938-9.688      c6.338,8.275,16.257,13.69,27.497,13.882c12.352,0.212,23.328-5.93,29.818-15.405c4.176,6.514,11.432,10.887,19.756,11.03      c8.965,0.154,16.858-4.639,21.082-11.855c4.463,4.097,10.384,6.644,16.922,6.756c7.129,0.122,13.628-2.672,18.36-7.279      c3.717,2.212,8.042,3.521,12.679,3.601c9.113,0.156,17.193-4.455,21.87-11.527c23.7-0.07,43.094-19.059,43.503-42.833      c0.054-3.17-0.24-6.263-0.832-9.252C569.621,255.63,551.969,270.643,530.903,270.706z"
   id="path14" />
				<path
   style="fill:#FFFFFF;"
   d="M335.518,223.986c-0.365-1.829-0.546-3.722-0.513-5.663      c0.252-14.664,12.359-26.347,27.042-26.095c5.02,0.086,9.691,1.558,13.655,4.041c7.888-12.37,21.835-20.475,37.593-20.205      c20.012,0.343,36.635,14.088,41.47,32.519c6.621-7.904,16.626-12.864,27.746-12.673c15.473,0.265,28.446,10.417,33.008,24.321      c4.972-1.852,10.363-2.835,15.99-2.739c20.931,0.359,38.159,15.376,42.065,35.084c0.494-2.505,0.787-5.083,0.832-7.726      c0.414-24.073-18.792-43.923-42.897-44.336c-5.627-0.096-11.017,0.887-15.99,2.739c-4.562-13.904-17.535-24.056-33.008-24.321      c-11.12-0.191-21.125,4.769-27.746,12.673c-4.836-18.431-21.458-32.176-41.47-32.519c-15.758-0.27-29.706,7.835-37.593,20.205      c-3.964-2.484-8.634-3.955-13.655-4.041c-14.683-0.252-26.79,11.432-27.042,26.096c-0.033,1.94,0.148,3.834,0.513,5.663      c-12.839,2.3-22.684,13.397-22.916,26.915c-0.054,3.135,0.425,6.153,1.335,8.981      C317.047,233.186,325.33,225.812,335.518,223.986z"
   id="path15" />
				<path
   style="fill:#B6D8EF;"
   d="M488.142,256.053c-8.648-1.709-14.573-9.423-14.3-17.944c-0.337,0.897-0.609,1.832-0.801,2.803      c-1.904,9.608,4.351,18.938,13.972,20.84c9.62,1.902,18.963-4.346,20.867-13.953c0.192-0.971,0.297-1.938,0.328-2.896      C505.211,252.885,496.791,257.762,488.142,256.053z"
   id="path16" />
				<path
   style="fill:#B6D8EF;"
   d="M402.265,251.122c-18.907-3.737-31.86-20.6-31.262-39.228c-0.736,1.961-1.331,4.004-1.751,6.127      c-4.163,21.005,9.513,41.402,30.545,45.559c21.032,4.157,41.456-9.5,45.619-30.505c0.421-2.122,0.65-4.237,0.718-6.331      C439.58,244.195,421.172,254.859,402.265,251.122z"
   id="path17" />
				<path
   style="fill:#FFFFFF;"
   d="M495.412,222.865c8.648,1.71,14.573,9.423,14.3,17.944c0.337-0.897,0.609-1.832,0.801-2.802      c1.904-9.608-4.351-18.938-13.972-20.84c-9.62-1.902-18.963,4.345-20.867,13.953c-0.192,0.971-0.298,1.938-0.328,2.896      C478.343,226.033,486.764,221.155,495.412,222.865z"
   id="path18" />
			</g>
			<g
   style="clip-path:url(#SVGID_00000035490548886314375400000008265183764212503961_);"
   clip-path="url(#SVGID_00000035490548886314375400000008265183764212503961_)"
   id="g22">
				<path
   style="fill:#D7EDF5;"
   d="M218.821,244.334c-1.518-3.282-4.099-5.972-7.303-7.63c0.294-1.447,0.449-2.945,0.449-4.478      c0-12.368-10.039-22.394-22.423-22.394c-4.357,0-8.421,1.245-11.862,3.392c-4.113-4.973-10.334-8.143-17.297-8.143      c-2.908,0-5.684,0.559-8.234,1.565c-4.148-10.034-14.038-17.098-25.583-17.098c-8.951,0-16.902,4.25-21.958,10.835      c-2.061-0.593-4.24-0.916-6.498-0.916c-7.891,0-14.85,3.884-18.982,9.798c-2.669-1.515-5.769-2.386-9.079-2.386      c-9.99,0-18.088,7.899-18.088,17.644c0,4.63,1.831,8.842,4.822,11.989c-3.753,3.236-6.131,8.017-6.131,13.357      c0,9.744,7.91,17.644,17.667,17.644c3.233,0,6.261-0.872,8.868-2.386c4.036,5.914,10.833,9.798,18.54,9.798      c3.719,0,7.223-0.909,10.309-2.51c5.066,7.488,13.765,12.43,23.651,12.43c10.954,0,20.449-6.069,25.163-14.944      c1.728,0.625,3.59,0.971,5.534,0.971c5.316,0,10.036-2.547,13.005-6.485c2.659,1.889,5.907,3.003,9.418,3.003      c4.059,0,7.768-1.487,10.618-3.942c2.85,2.454,6.559,3.942,10.618,3.942c3.67,0,7.056-1.214,9.778-3.261      c1.245,0.53,2.616,0.825,4.055,0.825c5.714,0,10.347-4.626,10.347-10.333C228.224,249.231,224.092,244.811,218.821,244.334z"
   id="path19" />
				<path
   style="fill:#B6D8EF;"
   d="M217.877,253.769c-1.44,0-2.81-0.295-4.055-0.825c-2.722,2.047-6.108,3.261-9.778,3.261      c-4.059,0-7.767-1.487-10.618-3.942c-2.85,2.454-6.559,3.942-10.618,3.942c-3.511,0-6.759-1.114-9.418-3.002      c-2.97,3.938-7.689,6.484-13.006,6.484c-1.944,0-3.806-0.346-5.534-0.971c-4.713,8.875-14.208,14.944-25.163,14.944      c-9.887,0-18.585-4.942-23.651-12.43c-3.087,1.601-6.59,2.511-10.309,2.511c-7.707,0-14.504-3.884-18.54-9.798      c-2.607,1.514-5.635,2.386-8.868,2.386c-7.802,0-14.409-5.056-16.75-12.062c-0.591,1.76-0.917,3.642-0.917,5.602      c0,9.744,7.91,17.644,17.667,17.644c3.233,0,6.261-0.872,8.868-2.386c4.036,5.914,10.833,9.798,18.54,9.798      c3.719,0,7.223-0.909,10.309-2.51c5.067,7.487,13.765,12.43,23.651,12.43c10.955,0,20.449-6.069,25.163-14.944      c1.728,0.625,3.59,0.971,5.534,0.971c5.316,0,10.036-2.547,13.006-6.484c2.658,1.889,5.907,3.003,9.418,3.003      c4.059,0,7.768-1.487,10.618-3.942c2.85,2.454,6.559,3.942,10.618,3.942c3.67,0,7.056-1.214,9.778-3.261      c1.246,0.53,2.616,0.825,4.055,0.825c5.714,0,10.347-4.626,10.347-10.333c0-2.063-0.609-3.982-1.653-5.594      C224.729,251.877,221.527,253.769,217.877,253.769z"
   id="path20" />
				<path
   style="fill:#FFFFFF;"
   d="M70.05,217.742c3.31,0,6.41,0.872,9.079,2.386c4.133-5.914,11.092-9.798,18.982-9.798      c2.258,0,4.437,0.323,6.498,0.916c5.056-6.585,13.006-10.835,21.958-10.835c11.545,0,21.435,7.064,25.583,17.098      c2.55-1.006,5.326-1.565,8.234-1.565c6.963,0,13.184,3.17,17.297,8.143c3.441-2.147,7.505-3.392,11.862-3.392      c9.995,0,19.015,6.139,22.126,15.008c0.178-1.136,0.297-2.291,0.297-3.477c0-12.368-10.039-22.394-22.423-22.394      c-4.357,0-8.421,1.245-11.862,3.392c-4.113-4.973-10.334-8.143-17.297-8.143c-2.908,0-5.684,0.559-8.234,1.565      c-4.148-10.034-14.038-17.098-25.583-17.098c-8.951,0-16.902,4.25-21.958,10.835c-2.061-0.593-4.24-0.916-6.498-0.916      c-7.891,0-14.85,3.884-18.982,9.798c-2.669-1.515-5.769-2.386-9.079-2.386c-9.99,0-18.088,7.9-18.088,17.644      c0,1.893,0.32,3.71,0.887,5.419C55.202,222.864,62.009,217.742,70.05,217.742z"
   id="path21" />
				<path
   style="fill:#B6D8EF;"
   d="M159.413,246.927c-6.37-1.259-10.756-6.871-10.7-13.128c0.015-0.244,0.045-0.49,0.053-0.733      c-3.939,10.49-15.005,16.901-26.37,14.654c-11.365-2.247-19.152-12.383-18.793-23.581c-0.443,1.179-0.8,2.407-1.053,3.683      c-2.502,12.626,5.718,24.888,18.361,27.387c12.023,2.376,23.696-4.94,26.966-16.521c0.231,6.002,4.532,11.287,10.69,12.504      c7.201,1.423,14.194-3.253,15.62-10.445c0.144-0.727,0.223-1.451,0.246-2.168C172.19,244.555,165.887,248.206,159.413,246.927z"
   id="path22" />
			</g>
			<g
   style="clip-path:url(#SVGID_00000035490548886314375400000008265183764212503961_);"
   clip-path="url(#SVGID_00000035490548886314375400000008265183764212503961_)"
   id="g29">
				<path
   style="fill:#D7EDF5;"
   d="M533.763,80.209c0.791-1.39,1.248-2.993,1.248-4.706c0-5.275-4.282-9.551-9.564-9.551      c-0.391,0-0.775,0.03-1.154,0.076c-0.542,0.049-1.068,0.151-1.58,0.287c-2.001-9.343-10.312-16.35-20.264-16.35      c-0.79,0-1.568,0.049-2.335,0.134c-1.864,0.184-3.654,0.618-5.34,1.262c-0.541-7.805-7.048-13.97-15-13.97      c-0.594,0-1.178,0.038-1.754,0.105c-5.225,0.51-9.663,3.691-11.935,8.158c-3.721-3.554-8.762-5.74-14.317-5.74      c-0.79,0-1.569,0.048-2.336,0.134c-9.092,0.897-16.457,7.661-18.247,16.449c-1.675-0.551-3.464-0.854-5.324-0.854      c-0.662,0-1.313,0.042-1.955,0.115c-2.699,0.265-5.211,1.162-7.39,2.538c-4.112-8.611-12.907-14.563-23.097-14.563      c-12.921,0-23.598,9.57-25.326,21.999c-1.927-0.591-3.973-0.911-6.095-0.911c-10.689,0-19.486,8.082-20.604,18.461      c-0.596-0.066-1.201-0.103-1.815-0.103c-9.019,0-16.33,7.302-16.33,16.309c0,9.007,7.311,16.308,16.33,16.308      c2.988,0,5.787-0.806,8.197-2.205c3.731,5.466,10.013,9.056,17.137,9.056c5.652,0,10.773-2.262,14.512-5.926      c3.796,4.784,9.661,7.857,16.249,7.857c7.714,0,14.438-4.212,18.007-10.455c2.745,2.938,6.655,4.777,10.996,4.777      c4.129,0,7.868-1.662,10.586-4.352c3.347,2.316,7.408,3.677,11.788,3.677c0.79,0,1.568-0.048,2.335-0.134      c3.608-0.356,6.941-1.638,9.764-3.601c1.782,0.757,3.741,1.179,5.797,1.19c3.535,2.8,8.002,4.476,12.865,4.476      c0.79,0,1.569-0.048,2.336-0.134c6.76-0.667,12.561-4.58,15.831-10.154c2.736,2.84,6.578,4.61,10.837,4.61      c0.594,0,1.179-0.038,1.755-0.105c4.95-0.483,9.193-3.364,11.558-7.464c1.578,0.561,3.276,0.869,5.046,0.869      c0.594,0,1.178-0.038,1.754-0.105c7.612-0.743,13.56-7.151,13.56-14.948C540.488,87.501,537.816,82.901,533.763,80.209z"
   id="path23" />
				<path
   style="fill:#B6D8EF;"
   d="M510.775,74.905c-1.134,6.869-7.105,12.11-14.304,12.11c-7.094,0-12.985-5.092-14.241-11.813      c-0.021-0.157-0.033-0.316-0.059-0.471c-1.134,6.869-7.105,12.11-14.304,12.11c-7.199,0-13.17-5.241-14.304-12.11      c-0.127,0.772-0.197,1.564-0.197,2.372c0,7.998,6.492,14.482,14.501,14.482c4.76,0,8.984-2.291,11.628-5.829      c0.197-0.247,2.691-3.248,5.233,0.018v-0.004c2.635,3.628,6.912,5.99,11.743,5.99c8.008,0,14.501-6.484,14.501-14.482      C510.971,76.468,510.902,75.677,510.775,74.905z"
   id="path24" />
				<path
   style="fill:#B6D8EF;"
   d="M526.928,95.677c-0.576,0.067-1.16,0.105-1.754,0.105c-1.771,0-3.469-0.308-5.046-0.869      c-2.364,4.1-6.608,6.981-11.558,7.464c-0.576,0.067-1.161,0.105-1.755,0.105c-4.258,0-8.1-1.77-10.837-4.61      c-3.269,5.574-9.07,9.487-15.831,10.154c-0.767,0.086-1.546,0.134-2.336,0.134c-4.862,0-9.329-1.676-12.865-4.476      c-2.056-0.011-4.015-0.433-5.797-1.191c-2.824,1.963-6.156,3.246-9.764,3.601c-0.767,0.086-1.545,0.134-2.335,0.134      c-4.381,0-8.441-1.361-11.788-3.677c-2.718,2.69-6.457,4.352-10.586,4.352c-4.341,0-8.25-1.839-10.996-4.777      c-3.569,6.243-10.293,10.455-18.007,10.455c-6.587,0-12.452-3.073-16.249-7.857c-3.739,3.664-8.86,5.926-14.512,5.926      c-7.124,0-13.406-3.59-17.137-9.056c-2.41,1.4-5.208,2.205-8.197,2.205c-6.897,0-12.792-4.273-15.185-10.311      c-0.736,1.857-1.145,3.879-1.145,5.998c0,9.007,7.311,16.308,16.33,16.308c2.988,0,5.787-0.805,8.197-2.205      c3.731,5.466,10.013,9.056,17.137,9.056c5.652,0,10.773-2.262,14.512-5.926c3.796,4.784,9.661,7.857,16.249,7.857      c7.714,0,14.438-4.212,18.007-10.455c2.745,2.938,6.655,4.777,10.996,4.777c4.129,0,7.868-1.662,10.586-4.352      c3.347,2.316,7.408,3.677,11.788,3.677c0.79,0,1.568-0.048,2.335-0.134c3.608-0.356,6.94-1.638,9.764-3.601      c1.782,0.757,3.741,1.179,5.797,1.19c3.535,2.8,8.002,4.476,12.865,4.476c0.79,0,1.569-0.048,2.336-0.134      c6.76-0.667,12.561-4.58,15.831-10.154c2.736,2.84,6.578,4.611,10.837,4.611c0.594,0,1.179-0.038,1.755-0.105      c4.95-0.483,9.193-3.364,11.558-7.464c1.578,0.561,3.276,0.869,5.046,0.869c0.594,0,1.178-0.038,1.754-0.105      c7.612-0.743,13.56-7.151,13.56-14.948c0-2.132-0.451-4.155-1.253-5.992C537.103,91.61,532.455,95.138,526.928,95.677z"
   id="path25" />
				<path
   style="fill:#FFFFFF;"
   d="M339.581,93.298c0.614,0,1.219,0.037,1.815,0.103c1.118-10.379,9.914-18.461,20.604-18.461      c2.121,0,4.167,0.32,6.095,0.911c1.728-12.429,12.405-21.999,25.326-21.999c10.189,0,18.985,5.952,23.097,14.563      c2.179-1.376,4.691-2.274,7.39-2.538c0.642-0.073,1.294-0.115,1.955-0.115c1.86,0,3.648,0.302,5.324,0.854      c1.79-8.788,9.155-15.551,18.247-16.448c0.767-0.086,1.546-0.135,2.336-0.135c5.555,0,10.596,2.187,14.317,5.74      c2.271-4.466,6.709-7.648,11.934-8.158c0.576-0.067,1.16-0.105,1.754-0.105c7.952,0,14.459,6.165,15,13.97      c1.686-0.644,3.475-1.078,5.34-1.262c0.767-0.086,1.545-0.134,2.335-0.134c9.953,0,18.263,7.007,20.264,16.35      c0.512-0.136,1.038-0.237,1.58-0.287c0.379-0.046,0.763-0.076,1.154-0.076c5.282,0,9.564,4.276,9.564,9.551      c0,1.713-0.457,3.316-1.248,4.706c2.677,1.777,4.745,4.39,5.845,7.463c0.568-1.583,0.88-3.287,0.88-5.065      c0-5.225-2.672-9.825-6.725-12.516c0.791-1.39,1.248-2.993,1.248-4.706c0-5.275-4.282-9.551-9.564-9.551      c-0.391,0-0.775,0.031-1.154,0.076c-0.542,0.049-1.068,0.151-1.58,0.287c-2.001-9.343-10.312-16.35-20.264-16.35      c-0.79,0-1.568,0.049-2.335,0.134c-1.864,0.184-3.654,0.618-5.34,1.262c-0.541-7.805-7.048-13.97-15-13.97      c-0.594,0-1.178,0.038-1.754,0.105c-5.225,0.51-9.663,3.691-11.934,8.158c-3.721-3.554-8.762-5.74-14.317-5.74      c-0.79,0-1.569,0.048-2.336,0.134c-9.092,0.897-16.457,7.661-18.247,16.449c-1.675-0.551-3.464-0.854-5.324-0.854      c-0.662,0-1.313,0.042-1.955,0.115c-2.699,0.265-5.211,1.162-7.39,2.538c-4.112-8.611-12.908-14.563-23.097-14.563      c-12.921,0-23.598,9.57-25.326,21.999c-1.927-0.591-3.973-0.911-6.095-0.911c-10.689,0-19.486,8.082-20.604,18.461      c-0.596-0.066-1.201-0.103-1.815-0.103c-9.019,0-16.33,7.301-16.33,16.308c0,1.766,0.285,3.466,0.805,5.059      C326.188,98.018,332.331,93.298,339.581,93.298z"
   id="path26" />
				<g
   id="g27">
					<path
   style="fill:#B6D8EF;"
   d="M426.096,86.308c-4,0.842-7.932-1.37-9.368-5.054c0.02,0.444,0.074,0.892,0.169,1.341       c0.938,4.443,5.306,7.286,9.755,6.349c4.449-0.937,7.295-5.299,6.357-9.742c-0.095-0.449-0.226-0.881-0.388-1.295       C432.798,81.855,430.096,85.465,426.096,86.308z"
   id="path27" />
				</g>
				<g
   id="g28">
					<path
   style="fill:#B6D8EF;"
   d="M390.845,94.205c-9.091,1.915-18.029-3.115-21.292-11.488c0.045,1.009,0.168,2.027,0.384,3.048       c2.133,10.1,12.06,16.56,22.173,14.43c10.113-2.13,16.582-12.044,14.449-22.144c-0.215-1.021-0.514-2.002-0.881-2.943       C406.079,84.085,399.937,92.291,390.845,94.205z"
   id="path28" />
				</g>
			</g>
			<g
   style="clip-path:url(#SVGID_00000035490548886314375400000008265183764212503961_);"
   clip-path="url(#SVGID_00000035490548886314375400000008265183764212503961_)"
   id="g39">
				<g
   id="g32">
					<g
   id="g31">
						<g
   id="g30">
							<path
   style="fill:#D7EDF5;"
   d="M382.959,371.683c-0.03,2.939-0.049,5.764-0.09,5.785c-5.999,3.138-10.511,8.91-12.183,15.886         c-8.971,2.327-15.873,10.114-17.345,19.829c-5.831,2.163-9.995,7.754-9.995,14.332c0,8.45,6.86,15.301,15.321,15.301         c3.427,0,6.581-1.138,9.133-3.036c2.624,1.08,5.471,1.694,8.459,1.694c1.481,0,2.925-0.161,4.329-0.439         c2.765,3.993,7.376,6.614,12.605,6.614c1.949,0,3.806-0.378,5.52-1.04c2.554,3.84,5.711,6.141,9.143,6.141         c4.728,0,8.954-4.322,11.764-11.105c2.655,4.549,7.581,7.615,13.233,7.615c7.168,0,13.169-4.923,14.841-11.563         c2.388,1.535,5.224,2.436,8.275,2.436c8.462,0,15.321-6.85,15.321-15.301c0-8.451-6.859-15.301-15.321-15.301         c-1.506,0-2.958,0.226-4.333,0.631c0.009-0.211,0.032-0.418,0.032-0.631c0-8.451-6.859-15.301-15.321-15.301         c-0.172,0-0.338,0.02-0.509,0.026c0.32-1.297,0.509-2.65,0.509-4.052c0-8.895-6.86-16.106-15.321-16.106         c-2.935,0-5.668,0.883-7.998,2.387c1.762-1.144,0.079-8.023-0.177-9.719c-1.349-8.939-6.794-19.314-17.66-16.896         C385.806,351.954,383.045,363.412,382.959,371.683z M421.195,406.719c-0.039-0.141-0.084-0.274-0.124-0.413         c0.104,0,0.205-0.014,0.309-0.016c-0.03,0.137-0.054,0.275-0.08,0.414C421.264,406.707,421.23,406.714,421.195,406.719z"
   id="path29" />
						</g>
					</g>
				</g>
				<path
   style="fill:#B6D8EF;"
   d="M455.97,430.935c-3.051,0-5.887-0.901-8.275-2.436c-1.673,6.64-7.674,11.563-14.841,11.563      c-5.653,0-10.578-3.066-13.233-7.616c-2.811,6.784-7.036,11.105-11.764,11.105c-3.432,0-6.589-2.301-9.143-6.141      c-1.715,0.663-3.571,1.04-5.52,1.04c-5.229,0-9.841-2.621-12.605-6.614c-1.404,0.279-2.848,0.439-4.329,0.439      c-2.988,0-5.835-0.614-8.459-1.694c-2.552,1.899-5.706,3.037-9.133,3.037c-6.855,0-12.656-4.497-14.613-10.697      c-0.458,1.449-0.709,2.991-0.709,4.593c0,8.451,6.86,15.301,15.321,15.301c3.427,0,6.581-1.138,9.133-3.036      c2.624,1.08,5.471,1.694,8.459,1.694c1.481,0,2.925-0.161,4.329-0.439c2.765,3.993,7.376,6.614,12.605,6.614      c1.949,0,3.805-0.378,5.52-1.04c2.554,3.84,5.711,6.141,9.143,6.141c4.728,0,8.954-4.322,11.764-11.105      c2.655,4.549,7.581,7.615,13.233,7.615c7.168,0,13.169-4.923,14.841-11.563c2.388,1.535,5.224,2.436,8.275,2.436      c8.462,0,15.321-6.85,15.321-15.301c0-1.603-0.249-3.147-0.706-4.598C468.63,426.435,462.827,430.935,455.97,430.935z"
   id="path32" />
				<path
   style="fill:#FFFFFF;"
   d="M350.478,430.665c0-6.577,4.163-12.168,9.995-14.332c1.472-9.714,8.374-17.502,17.345-19.828      c1.671-6.977,6.184-12.748,12.183-15.886c0.042-0.022,0.06-2.847,0.091-5.785c0.086-8.271,2.847-19.728,12.233-21.817      c1.41-0.314,2.727-0.408,3.958-0.322c-2.77-2.546-6.43-3.865-11.09-2.829c-9.387,2.089-12.148,13.546-12.234,21.817      c-0.03,2.939-0.049,5.764-0.09,5.785c-5.999,3.138-10.511,8.91-12.183,15.886c-8.971,2.327-15.873,10.114-17.345,19.829      c-5.832,2.163-9.995,7.755-9.995,14.332c0,7.62,5.584,13.921,12.884,15.09C352.727,439.8,350.478,435.498,350.478,430.665z"
   id="path33" />
				<g
   id="g38">
					<g
   id="g35">
						<path
   style="fill:#B6D8EF;"
   d="M377.534,420.022c-2.994-4.465-2.218-10.348,1.583-13.908        c-0.533,0.242-1.054,0.528-1.557,0.864c-4.974,3.326-6.306,10.049-2.976,15.017c3.33,4.967,10.062,6.298,15.036,2.972        c0.503-0.336,0.966-0.708,1.393-1.108C386.27,426.012,380.528,424.488,377.534,420.022z"
   id="path34" />
						<path
   style="fill:#FFFFFF;"
   d="M395.015,408.832c2.994,4.465,2.218,10.348-1.583,13.908c0.533-0.242,1.054-0.528,1.557-0.864        c4.974-3.326,6.306-10.049,2.976-15.017c-3.33-4.967-10.062-6.298-15.036-2.972c-0.503,0.336-0.966,0.708-1.393,1.108        C386.279,402.842,392.021,404.366,395.015,408.832z"
   id="path35" />
					</g>
					<g
   id="g37">
						<path
   style="fill:#B6D8EF;"
   d="M414.25,408.565c-5.279-1.043-8.895-5.751-8.728-10.952c-0.206,0.548-0.372,1.118-0.489,1.711        c-1.162,5.864,2.656,11.559,8.528,12.72c5.872,1.161,11.574-2.652,12.736-8.517c0.118-0.592,0.182-1.183,0.2-1.768        C424.668,406.632,419.529,409.609,414.25,408.565z"
   id="path36" />
						<path
   style="fill:#FFFFFF;"
   d="M418.687,388.308c5.279,1.044,8.895,5.751,8.728,10.952c0.206-0.548,0.372-1.118,0.489-1.711        c1.162-5.864-2.656-11.559-8.528-12.72c-5.872-1.161-11.574,2.652-12.736,8.517c-0.118,0.593-0.182,1.183-0.2,1.768        C408.269,390.242,413.408,387.265,418.687,388.308z"
   id="path37" />
					</g>
				</g>
			</g>
		</g>
	</g>
</g>

</svg>
