<?xml version="1.0" encoding="UTF-8" standalone="no"?>
<!-- Created with Inkscape (http://www.inkscape.org/) -->

<svg
   width="95.097961mm"
   height="153.95541mm"
   viewBox="0 0 95.097961 153.95541"
   version="1.1"
   id="svg1"
   inkscape:version="1.4.3 (0d15f75, 2025-12-25)"
   sodipodi:docname="flower.svg"
   xmlns:inkscape="http://www.inkscape.org/namespaces/inkscape"
   xmlns:sodipodi="http://sodipodi.sourceforge.net/DTD/sodipodi-0.dtd"
   xmlns="http://www.w3.org/2000/svg"
   xmlns:svg="http://www.w3.org/2000/svg">
  <sodipodi:namedview
     id="namedview1"
     pagecolor="#ffffff"
     bordercolor="#000000"
     borderopacity="0.25"
     inkscape:showpageshadow="2"
     inkscape:pageopacity="0.0"
     inkscape:pagecheckerboard="0"
     inkscape:deskcolor="#d1d1d1"
     inkscape:document-units="mm"
     inkscape:zoom="0.72604517"
     inkscape:cx="-20.659872"
     inkscape:cy="503.4122"
     inkscape:window-width="1920"
     inkscape:window-height="1017"
     inkscape:window-x="-8"
     inkscape:window-y="-8"
     inkscape:window-maximized="1"
     inkscape:current-layer="layer1" />
  <defs
     id="defs1" />
  <g
     inkscape:label="Layer 1"
     inkscape:groupmode="layer"
     id="layer1"
     transform="translate(-110.59583,-15.345818)">
    <g
       id="g253"
       transform="matrix(0.26458333,0,0,0.26458333,66.714703,-339.12644)">
	<g
   id="g232">
		<g
   id="g217">
			<path
   style="fill:#72e55a"
   d="M 345.787,1549.451 C 362.347,1545.261 383.1,1555.145 383.499,1642.214 383.897,1729.283 380.303,1740.684 355.541,1738.426 330.779,1736.167 322.045,1713.284 321.872,1651.917 321.698,1590.909 311.825,1558.046 345.787,1549.451 Z"
   id="path214" />

			<path
   style="fill:#6dcc52"
   d="M 355.54,1738.425 C 348.606,1737.793 342.93,1735.543 338.346,1731.284 338.827,1731.346 339.314,1731.4 339.808,1731.445 364.57,1733.703 368.165,1722.302 367.766,1635.234 367.53,1583.73 360.172,1559.235 350.773,1548.683 366.233,1547.954 383.139,1563.711 383.498,1642.213 383.897,1729.283 380.302,1740.684 355.54,1738.425 Z"
   id="path215" />

			<path
   style="fill:#90ff7d"
   d="M 333.736,1567.84 C 336.548,1565.337 341.324,1563.971 345.023,1565.608 346.626,1566.317 347.853,1567.501 348.788,1568.781 352.91,1574.425 351.68,1581.472 350.991,1587.979 347.394,1621.964 362.242,1657.531 349.122,1689.807 347.483,1693.838 343.834,1698.504 338.713,1697.679 333.542,1696.846 332.23,1691.342 332.08,1687.033 331.341,1665.931 330.602,1644.83 329.864,1623.727 329.494,1613.176 329.125,1602.625 328.756,1592.074 328.457,1583.531 326.103,1574.635 333.736,1567.84 Z"
   id="path216" />

			<path
   style="opacity:0.53;fill:#ffffff"
   d="M 339.722,1575.897 C 340.303,1577.636 339.98,1579.471 339.708,1581.251 337.571,1595.252 338.818,1609.467 339.911,1623.582 340.159,1626.79 340.336,1630.223 338.316,1632.954 337.602,1633.92 336.295,1634.836 334.973,1634.48 333.512,1634.088 333.21,1632.53 333.168,1631.276 332.743,1618.513 332.318,1605.751 331.893,1592.988 331.716,1587.693 330.516,1581.829 330.905,1576.6 331.238,1572.104 339.858,1570.978 339.722,1575.897 Z"
   id="path217" />

		</g>

		<g
   id="g221">
			<path
   style="fill:#72e55a"
   d="M 351.311,1732.39 C 367.87,1728.2 388.625,1738.083 389.022,1825.153 389.42,1912.222 385.826,1923.623 361.064,1921.364 336.302,1919.106 327.568,1896.223 327.395,1834.856 327.223,1773.848 317.349,1740.984 351.311,1732.39 Z"
   id="path218" />

			<path
   style="fill:#6dcc52"
   d="M 361.065,1921.363 C 354.131,1920.73 348.455,1918.48 343.871,1914.222 344.353,1914.284 344.839,1914.337 345.333,1914.382 370.095,1916.641 373.689,1905.24 373.291,1818.171 373.056,1766.667 365.697,1742.173 356.298,1731.621 371.758,1730.891 388.664,1746.648 389.023,1825.151 389.421,1912.221 385.827,1923.621 361.065,1921.363 Z"
   id="path219" />

			<path
   style="fill:#90ff7d"
   d="M 339.261,1750.778 C 342.073,1748.274 346.85,1746.908 350.548,1748.545 352.15,1749.254 353.378,1750.438 354.313,1751.718 358.435,1757.362 357.205,1764.409 356.517,1770.916 352.92,1804.901 367.768,1840.469 354.648,1872.745 353.01,1876.775 349.36,1881.442 344.239,1880.617 339.068,1879.783 337.757,1874.279 337.606,1869.971 336.867,1848.868 336.129,1827.767 335.39,1806.665 335.021,1796.113 334.651,1785.562 334.282,1775.012 333.982,1766.469 331.628,1757.572 339.261,1750.778 Z"
   id="path220" />

			<path
   style="opacity:0.53;fill:#ffffff"
   d="M 345.246,1758.835 C 345.827,1760.574 345.505,1762.409 345.233,1764.19 343.096,1778.19 344.343,1792.406 345.435,1806.521 345.683,1809.729 345.86,1813.162 343.841,1815.892 343.127,1816.858 341.82,1817.775 340.498,1817.419 339.037,1817.026 338.734,1815.468 338.693,1814.214 338.268,1801.452 337.843,1788.689 337.418,1775.927 337.242,1770.631 336.041,1764.768 336.43,1759.539 336.763,1755.041 345.383,1753.915 345.246,1758.835 Z"
   id="path221" />

		</g>

		<path
   style="fill:#569b40"
   d="M 336.562,1718.528 C 342.734,1724.571 350.338,1729.058 358.529,1731.49 353.446,1733.676 348.132,1736.037 344.74,1740.501 341.942,1744.183 340.79,1748.863 338.939,1753.131 337.089,1757.398 334.03,1761.652 329.569,1762.556 329.142,1762.643 328.682,1762.693 328.285,1762.511 327.571,1762.185 327.34,1761.278 327.208,1760.486 325.469,1750.018 326.032,1739.308 326.601,1728.704 326.798,1725.033 325.761,1717.61 328.015,1714.545 330.675,1710.93 334.449,1716.459 336.562,1718.528 Z"
   id="path222" />

		<g
   id="g226">
			<path
   style="fill:#72e55a"
   d="M 335.362,1737.236 C 345.156,1737.865 335.362,1711.278 314.725,1698.888 261.535,1666.956 188.982,1650.511 179.221,1707.738 169.46,1764.964 256.16,1773.223 289.462,1773.223 335.362,1773.224 351.406,1739.596 335.362,1737.236 319.319,1734.876 287.402,1740.147 264.198,1734.838 240.994,1729.528 234.342,1723.39 234.342,1715.998 234.342,1709.685 256.697,1709.544 270.514,1720.127 302.094,1744.315 335.362,1737.236 335.362,1737.236 Z"
   id="path223" />

			<path
   style="fill:#6dcc52"
   d="M 289.462,1773.224 C 335.363,1773.224 351.406,1739.596 335.363,1737.237 343.314,1737.747 338.354,1720.318 325.162,1707.113 326.839,1709.816 331.172,1719.887 318.326,1722.49 314.231,1723.319 310.082,1723.812 305.996,1722.936 293.699,1720.301 283.021,1712.807 271.877,1706.848 260.734,1700.89 247.772,1696.314 235.752,1700.066 231.54,1701.38 227.185,1704.343 226.672,1708.836 226.016,1714.577 230.744,1719.325 236.985,1723.051 235.101,1720.831 234.342,1718.487 234.342,1715.999 234.342,1709.686 256.697,1709.545 270.514,1720.128 281.56,1728.589 295.231,1735.579 308.579,1736.952 311.176,1736.651 312.03,1735.494 315.331,1733.973 322.449,1730.694 327.501,1731.27 332.633,1737.306 327.777,1743.607 320.285,1747.138 312.806,1749.494 291.093,1756.331 270.449,1758.505 247.913,1755.624 229.287,1753.242 199.38,1749.367 189.074,1733.248 185.164,1727.133 180.658,1720.465 180.203,1703.072 179.829,1704.573 179.496,1706.122 179.22,1707.739 169.46,1764.964 256.16,1773.224 289.462,1773.224 Z"
   id="path224" />

			<path
   style="fill:#90ff7d"
   d="M 190.503,1720.843 C 196.793,1733.254 211.142,1740.394 224.693,1738.998 226.038,1738.859 227.509,1738.57 228.351,1737.483 229.44,1736.076 228.985,1734.015 228.331,1732.347 226.269,1727.083 222.796,1722.527 220.46,1717.386 218.124,1712.244 217.05,1705.923 219.883,1701.053 222.316,1696.87 227.037,1694.734 231.6,1693.408 243.588,1689.928 256.619,1690.347 268.371,1694.595 272.991,1696.264 277.468,1698.521 282.313,1699.251 283.877,1699.486 285.692,1699.472 286.766,1698.279 288.01,1696.899 287.56,1694.546 286.299,1693.183 285.037,1691.822 261.217,1679 247.913,1676.969 238.393,1675.515 217.339,1672.344 198.372,1682.971 186.377,1689.694 184.885,1709.757 190.503,1720.843 Z"
   id="path225" />

			<path
   style="opacity:0.53;fill:#ffffff"
   d="M 198.722,1716.862 C 201.049,1719.139 204.765,1720.78 207.381,1718.862 210.114,1716.859 209.656,1712.636 209.009,1709.252 208.377,1705.943 207.846,1702.56 208.226,1699.211 208.605,1695.861 210.004,1692.506 212.61,1690.457 214.569,1688.917 217.09,1688.186 218.846,1686.405 225.136,1680.024 214.661,1679.926 211.11,1680.799 207.326,1681.729 203.611,1682.701 200.67,1685.452 192.011,1693.554 189.79,1708.122 198.722,1716.862 Z"
   id="path226" />

		</g>

		<path
   style="fill:#569b40"
   d="M 360.171,1742.597 C 361.161,1747.103 362.86,1751.915 363.972,1756.391 366.727,1767.479 374.883,1769.776 385.343,1773.552 384.577,1763.297 383.186,1760.319 379.724,1750.669 378.22,1746.478 376.465,1742.359 375.481,1738.008 374.27,1732.654 372.303,1722.292 372.299,1716.796 369.29,1717.961 367.279,1723.637 364.835,1725.783 361.411,1728.789 359.363,1731.832 354.988,1732.066 358.689,1734.64 359.173,1738.05 360.171,1742.597 Z"
   id="path227" />

		<g
   id="g231">
			<path
   style="fill:#72e55a"
   d="M 369.253,1735.586 C 359.491,1736.607 368.265,1709.648 388.415,1696.439 440.35,1662.393 512.221,1643.045 524.152,1699.835 536.084,1756.625 449.765,1768.362 416.489,1769.701 370.623,1771.546 353.311,1738.589 369.253,1735.586 385.195,1732.583 417.288,1736.567 440.272,1730.329 463.256,1724.091 469.67,1717.689 469.389,1710.304 469.149,1703.996 446.806,1704.753 433.401,1715.884 402.767,1741.322 369.253,1735.586 369.253,1735.586 Z"
   id="path228" />

			<path
   style="fill:#6dcc52"
   d="M 416.489,1769.701 C 370.623,1771.546 353.311,1738.589 369.253,1735.586 361.327,1736.415 365.62,1718.801 378.299,1705.074 376.726,1707.843 372.78,1718.081 385.714,1720.165 389.838,1720.83 394.002,1721.155 398.052,1720.116 410.24,1716.988 420.624,1709.071 431.532,1702.67 442.44,1696.268 455.218,1691.174 467.371,1694.44 471.63,1695.585 476.095,1698.371 476.779,1702.838 477.652,1708.549 473.109,1713.484 467.015,1717.457 468.813,1715.163 469.482,1712.789 469.387,1710.304 469.147,1703.996 446.804,1704.753 433.399,1715.884 422.683,1724.782 409.289,1732.316 396.003,1734.225 393.397,1734.03 392.5,1732.907 389.142,1731.52 381.905,1728.53 376.878,1729.308 371.98,1735.545 377.072,1741.647 384.693,1744.874 392.256,1746.927 414.213,1752.887 434.924,1754.229 457.333,1750.444 475.854,1747.316 505.591,1742.242 515.275,1725.721 518.949,1719.452 523.198,1712.61 522.99,1695.211 523.421,1696.695 523.813,1698.231 524.15,1699.835 536.084,1756.625 449.766,1768.362 416.489,1769.701 Z"
   id="path229" />

			<path
   style="fill:#90ff7d"
   d="M 513.377,1713.383 C 507.564,1726.038 493.499,1733.749 479.905,1732.899 478.555,1732.814 477.074,1732.586 476.192,1731.533 475.05,1730.171 475.427,1728.093 476.016,1726.4 477.876,1721.057 481.173,1716.365 483.312,1711.133 485.451,1705.903 486.283,1699.543 483.267,1694.79 480.677,1690.708 475.878,1688.763 471.267,1687.622 459.156,1684.626 446.15,1685.569 434.569,1690.285 430.016,1692.139 425.628,1694.573 420.814,1695.498 419.26,1695.797 417.446,1695.854 416.327,1694.707 415.032,1693.378 415.391,1691.008 416.6,1689.597 417.808,1688.185 441.123,1674.416 454.339,1671.852 463.796,1670.017 484.714,1666.002 504.07,1675.859 516.315,1682.092 518.57,1702.08 513.377,1713.383 Z"
   id="path230" />

			<path
   style="opacity:0.53;fill:#ffffff"
   d="M 505.014,1709.736 C 502.775,1712.104 499.125,1713.893 496.438,1712.083 493.63,1710.19 493.928,1705.953 494.445,1702.545 494.95,1699.213 495.352,1695.812 494.846,1692.48 494.339,1689.149 492.813,1685.852 490.132,1683.91 488.116,1682.449 485.568,1681.821 483.746,1680.112 477.218,1673.989 487.681,1673.469 491.263,1674.199 495.08,1674.975 498.829,1675.798 501.872,1678.428 510.833,1686.175 513.606,1700.644 505.014,1709.736 Z"
   id="path231" />

		</g>

	</g>

	<g
   id="g252">
		<g
   id="g235">
			<path
   style="fill:#e874da"
   d="M 320.807,1480.608 C 331.742,1487.036 329.933,1498.902 324.447,1507.22 317.692,1517.461 279.025,1523.648 229.429,1511.123 173.56,1497.015 151.94,1444.983 174.909,1407.902 200.462,1366.65 255.451,1373.718 296.159,1398.619 336.867,1423.52 345.596,1454.494 344.357,1465.542 343.024,1477.431 337.371,1487.042 320.807,1480.608 304.242,1474.175 305.536,1453.563 278.099,1439.81 248.57,1425.008 232.385,1428.984 227.342,1439.203 221.399,1451.248 230.346,1465.89 261.974,1474.012 293.601,1482.134 304.589,1471.076 320.807,1480.608 Z"
   id="path232" />

			<path
   style="fill:#c465bd"
   d="M 344.355,1465.543 C 344.996,1459.829 342.969,1448.785 335.233,1436.01 335.053,1436.217 334.891,1436.439 334.77,1436.694 334.39,1437.493 334.394,1438.415 334.433,1439.299 334.669,1444.74 335.925,1450.251 334.752,1455.57 333.58,1460.888 328.786,1466.029 323.429,1465.047 320.854,1464.574 318.719,1462.809 316.877,1460.949 309.127,1453.127 304.474,1442.777 297.497,1434.258 289.087,1423.988 277.128,1416.896 264.282,1413.762 252.869,1410.977 239.81,1411.021 228.818,1415.55 218.709,1419.715 213.28,1431.699 219.898,1441.507 221.354,1443.666 223.346,1445.228 225.623,1446.396 225.606,1443.946 226.195,1441.526 227.341,1439.204 232.383,1428.985 248.569,1425.01 278.098,1439.811 301.938,1451.76 304.089,1468.887 315.109,1477.393 315.202,1477.456 315.295,1477.52 315.388,1477.584 315.345,1477.559 315.301,1477.533 315.258,1477.508 315.8,1477.919 316.364,1478.309 316.952,1478.677 311.734,1476.509 306.867,1476.298 301.376,1476.541 301.718,1476.865 302.127,1477.135 302.536,1477.374 305.588,1479.162 309.068,1480.185 311.967,1482.211 314.866,1484.236 317.18,1487.787 316.23,1491.194 315.214,1494.838 311.122,1496.576 307.457,1497.516 290.408,1501.89 272.385,1499.737 255.119,1496.32 236.692,1492.674 218.186,1487.457 202.575,1477.008 186.964,1466.56 175.427,1459.776 169.081,1420.196 156.94,1455.637 179.512,1498.516 229.43,1511.123 279.026,1523.647 317.692,1517.461 324.448,1507.219 329.935,1498.901 331.743,1487.035 320.808,1480.608 337.369,1487.041 343.022,1477.43 344.355,1465.543 Z"
   id="path233" />

			<path
   style="fill:#ff99f8"
   d="M 191.938,1401.007 C 185.08,1409.605 181.698,1420.68 181.748,1431.662 181.794,1441.884 185.419,1453.005 194.304,1458.329 198.979,1461.131 206.107,1461.448 208.924,1456.864 211.327,1452.953 209.303,1447.966 207.773,1443.62 205.243,1436.432 204.211,1428.573 206.045,1421.215 207.88,1413.858 212.849,1407.09 219.905,1404.115 227.203,1401.038 235.537,1402.25 243.485,1402.711 246.394,1402.88 249.919,1402.611 251.266,1400.072 252.966,1396.866 249.666,1393.273 246.501,1391.4 228.296,1380.628 205.045,1384.576 191.938,1401.007 Z"
   id="path234" />

			<path
   style="opacity:0.53;fill:#ffffff"
   d="M 205.389,1396.274 C 204.345,1395.992 203.267,1396.533 202.356,1397.116 190.739,1404.56 185.005,1419.928 187.173,1433.187 187.605,1435.826 188.373,1438.601 190.394,1440.352 192.415,1442.104 196.025,1442.204 197.436,1439.932 198.205,1438.695 198.148,1437.134 198.067,1435.679 197.924,1433.141 197.782,1430.602 197.64,1428.063 197.272,1421.5 197.011,1414.48 200.418,1408.859 201.668,1406.797 203.351,1405.042 204.957,1403.244 205.893,1402.196 206.839,1401.063 207.117,1399.686 207.396,1398.31 206.745,1396.642 205.389,1396.274 Z"
   id="path235" />

		</g>

		<g
   id="g239">
			<path
   style="fill:#e874da"
   d="M 329.599,1513.559 C 338.07,1504.118 349.34,1508.246 356.404,1515.275 365.1,1523.93 363.487,1563.055 341.364,1609.176 316.443,1661.131 261.156,1671.99 229.373,1642.115 194.016,1608.881 211.861,1556.388 244.35,1521.435 276.839,1486.482 308.928,1484.077 319.51,1487.484 330.896,1491.151 339.193,1498.601 329.599,1513.559 320.005,1528.516 300.061,1523.156 281.134,1547.316 260.764,1573.318 261.446,1589.971 270.461,1596.942 281.085,1605.158 297.212,1599.296 311.452,1569.911 325.692,1540.525 317.036,1527.56 329.599,1513.559 Z"
   id="path236" />

			<path
   style="fill:#c465bd"
   d="M 319.509,1487.487 C 314.036,1485.724 302.81,1485.518 288.753,1490.563 288.92,1490.781 289.106,1490.984 289.331,1491.153 290.039,1491.684 290.943,1491.864 291.817,1492.002 297.197,1492.851 302.848,1492.715 307.828,1494.92 312.808,1497.125 316.894,1502.844 314.868,1507.899 313.894,1510.329 311.739,1512.071 309.551,1513.507 300.345,1519.55 289.278,1522.055 279.544,1527.201 267.809,1533.405 258.483,1543.717 252.86,1555.685 247.864,1566.318 245.315,1579.125 247.571,1590.798 249.646,1601.532 260.313,1609.234 271.24,1604.695 273.645,1603.696 275.571,1602.053 277.167,1600.054 274.762,1599.584 272.508,1598.526 270.46,1596.942 261.445,1589.971 260.763,1573.319 281.133,1547.316 297.579,1526.324 314.791,1527.616 325.316,1518.504 325.397,1518.426 325.478,1518.348 325.559,1518.269 325.526,1518.307 325.493,1518.344 325.459,1518.381 325.97,1517.932 326.463,1517.456 326.941,1516.953 323.78,1521.637 322.608,1526.364 321.755,1531.795 322.141,1531.524 322.487,1531.177 322.801,1530.824 325.159,1528.187 326.853,1524.98 329.414,1522.541 331.975,1520.102 335.914,1518.539 339.065,1520.146 342.435,1521.865 343.326,1526.221 343.52,1530 344.421,1547.578 338.733,1564.814 331.956,1581.059 324.723,1598.396 315.935,1615.497 302.596,1628.723 289.256,1641.949 280.316,1651.91 240.266,1650.27 272.591,1669.207 319.098,1655.598 341.365,1609.176 363.487,1563.055 365.101,1523.93 356.405,1515.276 349.341,1508.247 338.071,1504.119 329.6,1513.559 339.193,1498.604 330.895,1491.153 319.509,1487.487 Z"
   id="path237" />

			<path
   style="fill:#ff99f8"
   d="M 225.995,1624.056 C 233.059,1632.485 243.243,1637.998 254.016,1640.13 264.044,1642.114 275.663,1640.77 282.646,1633.119 286.32,1629.093 288.046,1622.17 284.113,1618.499 280.757,1615.367 275.467,1616.361 270.905,1616.997 263.358,1618.05 255.45,1617.5 248.603,1614.241 241.756,1610.982 236.11,1604.767 234.595,1597.262 233.028,1589.498 235.871,1581.571 237.901,1573.872 238.644,1571.054 239.08,1567.546 236.86,1565.722 234.055,1563.419 229.878,1565.941 227.414,1568.671 213.241,1584.375 212.494,1607.947 225.995,1624.056 Z"
   id="path238" />

			<path
   style="opacity:0.53;fill:#ffffff"
   d="M 224.028,1609.933 C 223.544,1610.9 223.86,1612.064 224.251,1613.073 229.24,1625.937 243.163,1634.608 256.59,1635.116 259.262,1635.217 262.134,1635.013 264.252,1633.381 266.37,1631.748 267.185,1628.23 265.239,1626.396 264.179,1625.397 262.638,1625.142 261.196,1624.933 258.679,1624.569 256.163,1624.204 253.646,1623.839 247.141,1622.898 240.209,1621.759 235.376,1617.304 233.603,1615.67 232.217,1613.671 230.773,1611.741 229.932,1610.616 229.01,1609.463 227.715,1608.918 226.42,1608.37 224.657,1608.677 224.028,1609.933 Z"
   id="path239" />

		</g>

		<g
   id="g243">
			<path
   style="fill:#e874da"
   d="M 353.671,1477.928 C 346.552,1488.426 353.277,1498.368 361.803,1503.528 372.3,1509.88 409.88,1498.875 449.302,1466.278 493.711,1429.559 490.911,1373.285 454.252,1349.649 413.469,1323.354 366.833,1353.336 340.749,1393.296 314.666,1433.257 320.073,1464.98 325.933,1474.427 332.239,1484.592 341.47,1490.847 353.671,1477.928 365.872,1465.009 355.858,1446.948 374.739,1422.75 395.059,1396.709 411.384,1393.354 420.324,1400.42 430.86,1408.749 429.063,1425.814 403.981,1446.723 378.898,1467.631 364.228,1462.358 353.671,1477.928 Z"
   id="path240" />

			<path
   style="fill:#c465bd"
   d="M 325.935,1474.426 C 322.905,1469.539 319.996,1458.696 321.501,1443.835 321.752,1443.945 321.995,1444.076 322.213,1444.254 322.899,1444.814 323.292,1445.648 323.636,1446.462 325.758,1451.479 326.989,1456.995 330.33,1461.296 333.671,1465.598 340.207,1468.184 344.624,1464.997 346.747,1463.465 347.918,1460.954 348.784,1458.483 352.427,1448.092 352.189,1436.748 354.834,1426.058 358.023,1413.173 365.782,1401.635 376.04,1393.291 385.154,1385.878 396.968,1380.313 408.84,1379.687 419.758,1379.111 429.805,1387.605 428.036,1399.304 427.647,1401.879 426.518,1404.144 424.963,1406.176 423.927,1403.955 422.356,1402.024 420.324,1400.417 411.385,1393.351 395.059,1396.706 374.739,1422.747 358.334,1443.771 363.74,1460.163 357.437,1472.574 357.38,1472.673 357.323,1472.769 357.267,1472.867 357.295,1472.826 357.324,1472.785 357.352,1472.743 357.039,1473.347 356.696,1473.941 356.323,1474.525 360.106,1470.328 364.411,1468.049 369.476,1465.912 369.307,1466.352 369.052,1466.771 368.786,1467.162 366.797,1470.087 364.093,1472.504 362.343,1475.578 360.594,1478.652 360.027,1482.851 362.347,1485.522 364.829,1488.377 369.271,1488.191 372.985,1487.467 390.261,1484.102 405.617,1474.423 419.746,1463.927 434.826,1452.725 449.302,1440.072 458.919,1423.935 468.536,1407.798 476.046,1396.72 464.793,1358.247 490.968,1385.049 488.981,1433.466 449.302,1466.273 409.88,1498.87 372.3,1509.874 361.803,1503.522 353.278,1498.363 346.553,1488.421 353.671,1477.923 341.472,1490.846 332.241,1484.591 325.935,1474.426 Z"
   id="path241" />

			<path
   style="fill:#ff99f8"
   d="M 435.91,1350.727 C 445.794,1355.55 453.602,1364.102 458.269,1374.042 462.614,1383.295 464.112,1394.896 458.373,1403.518 455.352,1408.055 449.05,1411.401 444.539,1408.469 440.69,1405.967 440.378,1400.594 439.895,1396.013 439.096,1388.435 436.655,1380.893 431.84,1375.034 427.026,1369.176 419.632,1365.196 411.984,1365.536 404.072,1365.889 397.064,1370.56 390.083,1374.388 387.528,1375.789 384.228,1377.059 381.923,1375.344 379.012,1373.177 380.45,1368.516 382.505,1365.465 394.326,1347.922 417.02,1341.51 435.91,1350.727 Z"
   id="path242" />

			<path
   style="opacity:0.53;fill:#ffffff"
   d="M 421.73,1352.225 C 422.552,1351.522 423.757,1351.547 424.831,1351.684 438.519,1353.422 450.292,1364.842 454.024,1377.749 454.767,1380.318 455.263,1383.154 454.19,1385.603 453.116,1388.052 449.898,1389.692 447.649,1388.246 446.423,1387.458 445.805,1386.025 445.254,1384.676 444.293,1382.322 443.332,1379.967 442.371,1377.613 439.888,1371.527 437.11,1365.074 431.621,1361.459 429.608,1360.133 427.333,1359.27 425.111,1358.334 423.817,1357.79 422.475,1357.173 421.633,1356.048 420.79,1354.924 420.663,1353.138 421.73,1352.225 Z"
   id="path243" />

		</g>

		<g
   id="g247">
			<path
   style="fill:#e874da"
   d="M 360.457,1509.944 C 348.638,1505.34 340.442,1514.109 337.31,1523.568 333.454,1535.215 352.544,1569.404 393.096,1600.585 438.776,1635.709 493.016,1620.458 507.903,1579.458 524.464,1533.847 484.856,1495.053 440.093,1478.515 395.33,1461.978 365.606,1474.308 357.699,1482.123 349.191,1490.532 345.147,1500.924 360.457,1509.944 375.768,1518.965 391.148,1505.182 418.939,1518.206 448.849,1532.222 455.753,1547.392 450.853,1557.68 445.078,1569.805 428.04,1571.85 402.075,1552.049 376.11,1532.248 377.986,1516.772 360.457,1509.944 Z"
   id="path244" />

			<path
   style="fill:#c465bd"
   d="M 357.7,1482.125 C 361.789,1478.083 371.715,1472.834 386.537,1470.995 386.486,1471.265 386.412,1471.529 386.287,1471.782 385.895,1472.575 385.169,1473.143 384.451,1473.661 380.032,1476.846 374.928,1479.273 371.479,1483.488 368.029,1487.703 366.962,1494.65 371.052,1498.247 373.018,1499.976 375.726,1500.559 378.327,1500.853 389.268,1502.093 400.276,1499.336 411.285,1499.537 424.557,1499.779 437.532,1504.775 447.95,1512.92 457.205,1520.156 465.259,1530.436 468.511,1541.871 471.502,1552.388 465.456,1564.072 453.657,1564.951 451.059,1565.144 448.6,1564.548 446.273,1563.484 448.208,1561.98 449.742,1560.019 450.856,1557.68 455.756,1547.392 448.852,1532.223 418.942,1518.207 394.795,1506.892 380.017,1515.81 366.513,1512.426 366.405,1512.393 366.298,1512.36 366.19,1512.325 366.237,1512.344 366.283,1512.362 366.33,1512.381 365.672,1512.21 365.016,1512.009 364.364,1511.775 369.298,1514.53 372.477,1518.219 375.688,1522.681 375.222,1522.614 374.756,1522.459 374.316,1522.286 371.022,1520.998 368.064,1518.899 364.677,1517.878 361.291,1516.857 357.071,1517.239 354.984,1520.095 352.752,1523.15 353.922,1527.439 355.454,1530.899 362.58,1546.993 375.433,1559.809 388.809,1571.249 403.085,1583.458 418.643,1594.756 436.515,1600.541 454.386,1606.326 466.859,1611.183 501.863,1591.651 481.558,1623.133 433.913,1631.969 393.098,1600.587 352.547,1569.406 333.456,1535.217 337.313,1523.57 340.445,1514.11 348.641,1505.341 360.461,1509.946 345.148,1500.926 349.193,1490.534 357.7,1482.125 Z"
   id="path245" />

			<path
   style="fill:#ff99f8"
   d="M 502.769,1561.816 C 500.267,1572.526 493.666,1582.041 485.013,1588.803 476.959,1595.098 465.983,1599.14 456.3,1595.462 451.205,1593.526 446.541,1588.127 448.395,1583.076 449.978,1578.766 455.147,1577.267 459.506,1575.777 466.716,1573.311 473.526,1569.254 478.167,1563.256 482.808,1557.258 485.042,1549.165 483.008,1541.783 480.904,1534.147 474.79,1528.354 469.505,1522.4 467.571,1520.22 465.599,1517.287 466.757,1514.658 468.221,1511.337 473.086,1511.702 476.518,1513.027 496.25,1520.65 507.551,1541.35 502.769,1561.816 Z"
   id="path246" />

			<path
   style="opacity:0.53;fill:#ffffff"
   d="M 388.222,1489.787 C 389.749,1491.236 392.171,1490.966 394.239,1490.572 397.7,1489.913 401.19,1489.173 404.709,1489.336 408.605,1489.517 412.354,1490.795 416.171,1491.602 419.987,1492.408 424.125,1492.707 427.648,1491.032 428.083,1490.825 428.523,1490.572 428.774,1490.161 429.282,1489.326 428.809,1488.241 428.211,1487.468 423.639,1481.543 410.863,1479.796 403.773,1479.309 399.833,1479.036 380.904,1482.843 388.222,1489.787 Z"
   id="path247" />

		</g>

		<g
   id="g251">
			<path
   style="fill:#72e55a"
   d="M 364.604,1495.209 C 362.973,1509.757 349.856,1520.229 335.308,1518.598 320.76,1516.966 310.288,1503.85 311.92,1489.302 313.551,1474.753 326.667,1464.282 341.215,1465.913 355.764,1467.545 366.235,1480.66 364.604,1495.209 Z"
   id="path248" />

			<path
   style="fill:#6dcc52"
   d="M 350.158,1468.562 C 353.927,1473.73 355.849,1480.268 355.08,1487.126 353.449,1501.674 340.332,1512.146 325.785,1510.514 322.577,1510.155 319.568,1509.235 316.843,1507.867 321.07,1513.663 327.619,1517.735 335.309,1518.598 349.857,1520.229 362.973,1509.757 364.605,1495.209 365.876,1483.868 359.792,1473.399 350.158,1468.562 Z"
   id="path249" />

			<path
   style="fill:#90ff7d"
   d="M 321.795,1496.74 C 323.535,1498.579 325.746,1499.92 328.069,1500.925 330.632,1502.034 333.471,1502.764 336.214,1502.238 339.952,1501.521 342.941,1498.54 344.627,1495.128 346.312,1491.715 346.896,1487.88 347.422,1484.11 348.649,1475.338 335.139,1470.226 327.726,1472.86 318.206,1476.242 314.891,1489.443 321.795,1496.74 Z"
   id="path250" />

			<path
   style="opacity:0.53;fill:#ffffff"
   d="M 329.588,1477.71 C 326.961,1477.278 324.813,1479.947 324.159,1482.528 323.721,1484.253 323.691,1486.192 324.641,1487.697 325.695,1489.367 327.732,1490.156 329.691,1490.413 333.089,1490.857 336.926,1489.773 338.759,1486.877 340.319,1484.411 340.019,1480.92 338.061,1478.756 336.104,1476.593 332.659,1475.946 330.051,1477.254 Z"
   id="path251" />

		</g>

	</g>

</g>
  </g>
</svg>
