<?xml version="1.0" encoding="UTF-8" standalone="no"?>
<!-- Created with Inkscape (http://www.inkscape.org/) -->

<svg
   width="597.40948mm"
   height="849.74536mm"
   viewBox="0 0 597.40948 849.74536"
   version="1.1"
   id="svg1"
   inkscape:version="1.4.3 (0d15f75, 2025-12-25)"
   sodipodi:docname="hot-air-balloon.svg"
   xmlns:inkscape="http://www.inkscape.org/namespaces/inkscape"
   xmlns:sodipodi="http://sodipodi.sourceforge.net/DTD/sodipodi-0.dtd"
   xmlns="http://www.w3.org/2000/svg"
   xmlns:svg="http://www.w3.org/2000/svg">
  <sodipodi:namedview
     id="namedview1"
     pagecolor="#ffffff"
     bordercolor="#000000"
     borderopacity="0.25"
     inkscape:showpageshadow="2"
     inkscape:pageopacity="0.0"
     inkscape:pagecheckerboard="0"
     inkscape:deskcolor="#d1d1d1"
     inkscape:document-units="mm"
     inkscape:zoom="0.12834787"
     inkscape:cx="1441.3952"
     inkscape:cy="2808.7728"
     inkscape:window-width="1920"
     inkscape:window-height="1017"
     inkscape:window-x="-8"
     inkscape:window-y="-8"
     inkscape:window-maximized="1"
     inkscape:current-layer="layer1" />
  <defs
     id="defs1" />
  <g
     inkscape:label="Layer 1"
     inkscape:groupmode="layer"
     id="layer1"
     transform="translate(109.53751,327.28959)">
    <g
       id="g59"
       transform="matrix(0.26458333,0,0,0.26458333,-609.40021,-393.79631)">
	<path
   style="fill:#a3311d"
   d="M 2810.238,3107.699 C 2808.831,3107.699 2807.467,3106.956 2806.736,3105.638 L 2005.161,1660.55 C 2004.09,1658.618 2004.787,1656.183 2006.719,1655.112 2008.652,1654.041 2011.086,1654.738 2012.157,1656.67 L 2813.732,3101.758 C 2814.803,3103.69 2814.106,3106.124 2812.174,3107.196 2811.56,3107.537 2810.895,3107.699 2810.238,3107.699 Z"
   id="path31" />

	<path
   style="fill:#a3311d"
   d="M 3256.879,3107.699 C 3256.244,3107.699 3255.6,3107.547 3255,3107.227 3253.051,3106.187 3252.313,3103.764 3253.354,3101.815 L 4024.384,1656.727 C 4025.423,1654.778 4027.845,1654.04 4029.796,1655.081 4031.745,1656.121 4032.483,1658.544 4031.442,1660.493 L 3260.412,3105.581 C 3259.692,3106.931 3258.309,3107.699 3256.879,3107.699 Z"
   id="path32" />

	<path
   style="fill:#aae1e2"
   d="M 2207.008,556.9 C 2207.008,556.9 1807.52,726.395 1904.391,1367.268 1964.314,1763.706 2366.038,2108.154 2651.809,2365.568 2670.475,2358.02 2691.005,2350.617 2713.446,2343.675 2475.765,2065.547 2150.165,1641.191 2108.109,1360.187 2040.925,911.287 2207.008,556.9 2207.008,556.9 Z"
   id="path33" />

	<path
   style="fill:#aae1e2"
   d="M 3829.408,556.9 C 3829.408,556.9 3995.491,911.287 3928.307,1360.188 3886.252,1641.188 3560.659,2065.537 3322.978,2343.666 3345.541,2350.362 3366.379,2357.488 3385.506,2364.759 3671.186,2107.288 4072.163,1768.613 4132.024,1372.591 4228.896,731.718 3829.408,556.9 3829.408,556.9 Z"
   id="path34" />

	<g
   id="g36">
		<path
   style="fill:#f26545"
   d="M 2596.928,389.23 C 2596.928,389.23 2009.69,390.87 2030.755,1099.717 2044.302,1555.585 2427.269,2055.465 2698.898,2354.207 2734.799,2341.436 2776.448,2329.6 2824.091,2320.376 2650.582,2027.449 2417.577,1582.949 2388.904,1266.324 2342.561,754.589 2596.928,389.23 2596.928,389.23 Z"
   id="path35" />

		<path
   style="fill:#f26545"
   d="M 3439.489,389.23 C 3439.489,389.23 3693.856,754.589 3647.513,1266.324 3619,1581.18 3388.432,2022.486 3215.24,2315.452 3263.79,2323.234 3307.24,2333.666 3345.593,2345.307 3616.671,2045.606 3992.249,1551.086 4005.663,1099.717 4026.727,390.87 3439.489,389.23 3439.489,389.23 Z"
   id="path36" />

	</g>

	<g
   id="g38">
		<path
   style="fill:#aae1e2"
   d="M 3698.07,974.219 C 3643.301,238.837 3117.502,286.099 3117.502,286.099 3117.502,286.099 3306.26,803.641 3302.046,1099.31 3299.218,1297.76 3173.612,1916.603 3091.317,2302.114 3143.353,2305.549 3190.851,2312.184 3233.838,2320.806 3445.184,1990.33 3733.172,1445.541 3698.07,974.219 Z"
   id="path37" />

		<path
   style="fill:#aae1e2"
   d="M 2918.916,286.098 C 2918.916,286.098 2393.117,238.837 2338.348,974.218 2303.314,1444.619 2590.108,1988.199 2801.34,2318.863 2844.254,2310.48 2892.06,2304.218 2944.93,2301.311 2862.631,1915.744 2737.198,1297.622 2734.372,1099.309 2730.158,803.641 2918.916,286.098 2918.916,286.098 Z"
   id="path38" />

	</g>

	<path
   style="fill:#f26545"
   d="M 3022.124,251.364 C 2882.866,251.364 2705.791,433.507 2705.791,1064.545 2705.791,1462.277 2828.76,1978.075 2919.688,2305.111 2949.803,2302.674 2981.671,2301.324 3015.339,2301.324 3054.898,2301.324 3092.226,2303.188 3127.341,2306.491 3229.417,1977.559 3365.964,1463.263 3365.964,1068.092 3365.964,437.054 3161.382,251.364 3022.124,251.364 Z"
   id="path39" />

	<path
   style="fill:#f26545"
   d="M 2651.81,2365.569 C 2651.81,2365.569 2830.64,2283.874 3035.878,2281.346 3241.116,2278.818 3385.507,2364.759 3385.507,2364.759 3385.507,2364.759 3304.798,2525.951 3307.607,2670.035 3307.607,2670.035 3164.965,2601.27 3035.877,2601.27 2906.789,2601.27 2764.86,2670.035 2764.86,2670.035 2764.86,2670.035 2745.066,2452.002 2651.81,2365.569 Z"
   id="path40" />

	<ellipse
   style="fill:#c13e29"
   cx="3036.2339"
   cy="2670.0349"
   rx="271.37399"
   ry="68.556"
   id="ellipse40" />

	<path
   style="fill:#a3311d"
   d="M 3247.46,3109.754 C 3247.437,3109.752 3247.413,3109.75 3247.389,3109.748 3245.426,3109.572 3244.001,3107.926 3244.212,3106.01 L 3291.609,2674.442 3105.006,2871.59 3247.353,2628.896 C 3248.332,2627.226 3250.513,2626.664 3252.222,2627.627 3253.932,2628.592 3254.525,2630.731 3253.545,2632.401 L 3142.541,2821.669 3301.006,2654.272 3251.307,3106.782 C 3251.099,3108.675 3249.391,3109.927 3247.46,3109.754 Z"
   id="path41" />

	<path
   style="fill:#a3311d"
   d="M 2806.7,3109.239 C 2806.094,3109.239 2805.48,3109.087 2804.917,3108.77 2803.21,3107.805 2802.627,3105.67 2803.614,3104.001 L 2950.294,2855.826 2956.66,2858.957 2849.763,3101.096 C 2848.982,3102.865 2846.88,3103.683 2845.072,3102.917 2843.262,3102.153 2842.429,3100.098 2843.21,3098.328 L 2925.854,2911.126 2809.792,3107.495 C 2809.132,3108.614 2807.933,3109.239 2806.7,3109.239 Z"
   id="path42" />

	<path
   style="fill:#a3311d"
   d="M 3261.222,3109.239 C 3259.989,3109.239 3258.79,3108.614 3258.129,3107.494 L 3142.08,2911.135 3224.719,3098.327 C 3225.5,3100.097 3224.667,3102.152 3222.857,3102.916 3221.048,3103.681 3218.948,3102.865 3218.166,3101.095 L 3111.27,2858.956 3117.636,2855.825 3264.308,3104 C 3265.295,3105.669 3264.711,3107.804 3263.004,3108.769 3262.442,3109.087 3261.828,3109.239 3261.222,3109.239 Z"
   id="path43" />

	<path
   style="fill:#a3311d"
   d="M 3111.876,2858.83 C 3111.037,2858.706 3110.241,2858.271 3109.654,2857.538 3108.366,2855.931 3108.57,2853.498 3110.11,2852.105 L 3284.221,2694.488 C 3285.761,2693.094 3288.053,2693.267 3289.342,2694.875 3290.63,2696.482 3290.426,2698.915 3288.887,2700.309 L 3114.775,2857.926 C 3113.936,2858.683 3112.876,2858.978 3111.876,2858.83 Z"
   id="path44" />

	<path
   style="fill:#a3311d"
   d="M 2824.552,3109.754 C 2824.575,3109.752 2824.599,3109.75 2824.623,3109.748 2826.586,3109.572 2828.011,3107.926 2827.8,3106.01 L 2780.403,2674.442 2967.006,2871.59 2824.659,2628.896 C 2823.68,2627.226 2821.499,2626.664 2819.79,2627.627 2818.08,2628.592 2817.488,2630.731 2818.467,2632.401 L 2929.471,2821.669 2771.006,2654.272 2820.705,3106.782 C 2820.913,3108.675 2822.621,3109.927 2824.552,3109.754 Z"
   id="path45" />

	<path
   style="fill:#a3311d"
   d="M 2960.136,2858.83 C 2960.974,2858.706 2961.771,2858.271 2962.358,2857.538 2963.646,2855.931 2963.442,2853.498 2961.903,2852.105 L 2787.792,2694.488 C 2786.252,2693.094 2783.96,2693.267 2782.671,2694.875 2781.383,2696.482 2781.587,2698.915 2783.126,2700.309 L 2957.238,2857.926 C 2958.076,2858.683 2959.136,2858.978 2960.136,2858.83 Z"
   id="path46" />

	<g
   id="g50">
		<path
   style="fill:#914a1a"
   d="M 3034,3099 H 2872.825 C 2853.484,3099 2814.982,3112.83 2814.982,3131.747 L 2825.338,3197.514 3034,3209.136 Z"
   id="path47" />

		<path
   style="fill:#a0531f"
   d="M 2825.339,3197.417 2858.732,3429.102 C 2858.732,3448.02 2874.315,3463 2893.656,3463 H 3034 V 3209.136 Z"
   id="path48" />

		<path
   style="fill:#7f4016"
   d="M 3240.327,3220.792 3256.92,3128.593 C 3256.92,3109.676 3214.438,3099 3195.097,3099 H 3034 V 3209.136 Z"
   id="path49" />

		<path
   style="fill:#914a1a"
   d="M 3034,3209.136 V 3463 H 3173.571 C 3192.912,3463 3208.592,3448.02 3208.592,3429.102 L 3240.327,3220.614 Z"
   id="path50" />

	</g>

	<path
   style="fill:#601c13"
   d="M 3064.743,2772 H 3063 V 2718.418 C 3063,2704.759 3049.508,2693.686 3033,2693.686 3016.492,2693.686 3003,2704.759 3003,2718.418 V 2771.355 C 2976,2771.355 2953,2793.235 2953,2820.225 V 2891.785 C 2953,2918.775 2975.584,2939.999 3003.179,2939.999 H 3064.743 C 3092.338,2939.999 3115,2918.775 3115,2891.785 V 2820.225 C 3115,2793.236 3092.338,2772 3064.743,2772 Z"
   id="path51" />

	<path
   style="fill:#8fd0d5"
   d="M 2896.765,3224.298 C 2896.161,3224.298 2895.557,3224.293 2894.943,3224.282 2865.608,3223.782 2846.818,3212.152 2836.22,3202.485 2824.677,3191.955 2820.146,3181.557 2819.959,3181.12 2819.197,3179.341 2820.054,3177.296 2821.872,3176.552 2823.687,3175.805 2825.776,3176.642 2826.539,3178.417 2826.582,3178.516 2830.803,3188.085 2841.333,3197.602 2855.388,3210.305 2873.467,3216.934 2895.067,3217.303 2946.422,3218.139 2959.524,3179.122 2959.65,3178.728 2960.24,3176.889 2962.241,3175.863 2964.123,3176.442 2966.004,3177.019 2967.05,3178.977 2966.46,3180.817 2966.313,3181.277 2962.723,3192.212 2952.077,3203.051 2942.495,3212.806 2925.168,3224.298 2896.765,3224.298 Z"
   id="path52" />

	<path
   style="fill:#8fd0d5"
   d="M 3036.714,3224.298 C 3036.11,3224.298 3035.506,3224.293 3034.892,3224.282 3005.557,3223.782 2986.767,3212.152 2976.169,3202.485 2964.626,3191.955 2960.095,3181.557 2959.908,3181.12 2959.147,3179.341 2960.003,3177.296 2961.821,3176.552 2963.637,3175.805 2965.725,3176.642 2966.489,3178.417 2966.532,3178.516 2970.753,3188.085 2981.283,3197.602 2995.338,3210.305 3013.417,3216.934 3035.017,3217.303 3035.584,3217.313 3036.154,3217.318 3036.712,3217.318 3086.647,3217.318 3099.476,3179.118 3099.601,3178.728 3100.19,3176.889 3102.194,3175.863 3104.074,3176.442 3105.955,3177.019 3107.001,3178.978 3106.411,3180.817 3106.264,3181.277 3102.674,3192.212 3092.027,3203.051 3082.443,3212.806 3065.117,3224.298 3036.714,3224.298 Z"
   id="path53" />

	<path
   style="fill:#8fd0d5"
   d="M 3176.663,3224.298 C 3176.059,3224.298 3175.455,3224.293 3174.841,3224.282 3145.506,3223.782 3126.716,3212.152 3116.118,3202.485 3104.575,3191.955 3100.044,3181.557 3099.857,3181.12 3099.096,3179.341 3099.952,3177.296 3101.77,3176.552 3103.585,3175.805 3105.674,3176.642 3106.438,3178.417 3106.481,3178.516 3110.702,3188.085 3121.232,3197.602 3135.287,3210.305 3153.366,3216.934 3174.966,3217.303 3226.325,3218.136 3239.423,3179.123 3239.55,3178.728 3240.139,3176.889 3242.142,3175.863 3244.023,3176.442 3245.904,3177.019 3246.95,3178.978 3246.36,3180.817 3246.213,3181.277 3242.623,3192.212 3231.976,3203.051 3222.392,3212.806 3205.066,3224.298 3176.663,3224.298 Z"
   id="path54" />

	<g
   id="g56">
		<path
   style="fill:#914a1a"
   d="M 3238.146,3099 H 3034 V 3179 H 3238.146 C 3257.487,3179 3273,3167.382 3273,3151.861 V 3126.715 C 3273,3111.194 3257.488,3099 3238.146,3099 Z"
   id="path55" />

		<path
   style="fill:#a0531f"
   d="M 2829.775,3099 C 2810.434,3099 2795,3111.194 2795,3126.715 V 3151.861 C 2795,3167.382 2810.434,3179 2829.775,3179 H 3034 V 3099 Z"
   id="path56" />

	</g>

	<path
   style="fill:#601c13"
   d="M 2905.694,3223.666 2921.638,3201 H 2866.92 L 2884.676,3223.003 C 2869.22,3236.812 2851.945,3266.114 2851.945,3291.527 2851.945,3325.297 2871.122,3336.301 2894.778,3336.301 2918.434,3336.301 2937.611,3325.315 2937.611,3291.545 2937.611,3266.057 2921.222,3237.414 2905.694,3223.666 Z"
   id="path57" />

	<path
   style="fill:#601c13"
   d="M 3044.882,3223.666 3060.826,3201 H 3006.108 L 3023.864,3223.003 C 3008.408,3236.812 2991.133,3266.114 2991.133,3291.527 2991.133,3325.297 3010.31,3336.301 3033.966,3336.301 3057.622,3336.301 3076.799,3325.315 3076.799,3291.545 3076.799,3266.057 3060.41,3237.414 3044.882,3223.666 Z"
   id="path58" />

	<path
   style="fill:#601c13"
   d="M 3184.07,3223.666 3200.014,3201 H 3145.296 L 3163.052,3223.003 C 3147.596,3236.812 3130.321,3266.114 3130.321,3291.527 3130.321,3325.297 3149.498,3336.301 3173.154,3336.301 3196.81,3336.301 3215.987,3325.315 3215.987,3291.545 3215.986,3266.057 3199.598,3237.414 3184.07,3223.666 Z"
   id="path59" />

</g>
  </g>
</svg>
