<?xml version="1.0" encoding="UTF-8" standalone="no"?>
<!-- Created with Inkscape (http://www.inkscape.org/) -->

<svg
   width="37mm"
   height="37mm"
   viewBox="0 0 37 37"
   version="1.1"
   id="svg1"
   inkscape:version="1.4.3 (0d15f75, 2025-12-25)"
   sodipodi:docname="icon.svg"
   inkscape:export-filename="..\..\composeApp\src\androidMain\res\mipmap-hdpi\ic_launcher.png"
   inkscape:export-xdpi="49.427029"
   inkscape:export-ydpi="49.427029"
   xmlns:inkscape="http://www.inkscape.org/namespaces/inkscape"
   xmlns:sodipodi="http://sodipodi.sourceforge.net/DTD/sodipodi-0.dtd"
   xmlns:xlink="http://www.w3.org/1999/xlink"
   xmlns="http://www.w3.org/2000/svg"
   xmlns:svg="http://www.w3.org/2000/svg">
  <sodipodi:namedview
     id="namedview1"
     pagecolor="#ffffff"
     bordercolor="#000000"
     borderopacity="0.25"
     inkscape:showpageshadow="2"
     inkscape:pageopacity="0.0"
     inkscape:pagecheckerboard="false"
     inkscape:deskcolor="#d1d1d1"
     inkscape:document-units="mm"
     inkscape:zoom="4.1071317"
     inkscape:cx="80.591523"
     inkscape:cy="85.339362"
     inkscape:window-width="1920"
     inkscape:window-height="1017"
     inkscape:window-x="-8"
     inkscape:window-y="-8"
     inkscape:window-maximized="1"
     inkscape:current-layer="layer1"
     showgrid="false" />
  <defs
     id="defs1">
    <linearGradient
       id="linearGradient44"
       inkscape:collect="always">
      <stop
         style="stop-color:#ffffff;stop-opacity:0;"
         offset="0"
         id="stop43" />
      <stop
         style="stop-color:#817fff;stop-opacity:0;"
         offset="0.5"
         id="stop45" />
      <stop
         style="stop-color:#ff9c00;stop-opacity:0.80000001;"
         offset="1"
         id="stop44" />
    </linearGradient>
    <linearGradient
       id="linearGradient37"
       inkscape:collect="always">
      <stop
         style="stop-color:#ffffff;stop-opacity:0;"
         offset="0"
         id="stop36" />
      <stop
         style="stop-color:#ff9c00;stop-opacity:0.80000001;"
         offset="1"
         id="stop37" />
    </linearGradient>
    <linearGradient
       id="linearGradient18"
       inkscape:collect="always">
      <stop
         style="stop-color:#ffffff;stop-opacity:0;"
         offset="0"
         id="stop17" />
      <stop
         style="stop-color:#ff9c00;stop-opacity:0.80000001;"
         offset="1"
         id="stop18" />
    </linearGradient>
    <linearGradient
       id="SVGID_00000044899036830253578930000003099350347836967609_"
       gradientUnits="userSpaceOnUse"
       x1="496.5159"
       y1="290.02841"
       x2="496.5159"
       y2="283.5451">
      <stop
         offset="0.0654"
         style="stop-color:#72A1EC"
         id="stop218" />
      <stop
         offset="0.39590001"
         style="stop-color:#668bf0;stop-opacity:1;"
         id="stop219" />
      <stop
         offset="1"
         style="stop-color:#4343fe;stop-opacity:1;"
         id="stop220" />
    </linearGradient>
    <radialGradient
       id="SVGID_00000165194548797911044740000000758655264289964966_"
       cx="548.34161"
       cy="294.4841"
       r="48.475399"
       fx="533.77722"
       fy="263.20871"
       gradientTransform="matrix(1.0268,0,0,1.2821,-66.7603,-154.0175)"
       gradientUnits="userSpaceOnUse">
      <stop
         offset="0.0654"
         style="stop-color:#7097f0;stop-opacity:1;"
         id="stop221" />
      <stop
         offset="0.3062"
         style="stop-color:#627cf4;stop-opacity:1;"
         id="stop222" />
      <stop
         offset="0.74629998"
         style="stop-color:#4343fe;stop-opacity:1;"
         id="stop223" />
      <stop
         offset="0.78979999"
         style="stop-color:#4949fd;stop-opacity:1;"
         id="stop224" />
      <stop
         offset="0.8387"
         style="stop-color:#5559fc;stop-opacity:1;"
         id="stop225" />
      <stop
         offset="0.89020002"
         style="stop-color:#7276f8;stop-opacity:1;"
         id="stop226" />
      <stop
         offset="0.94340003"
         style="stop-color:#8e94f6;stop-opacity:1;"
         id="stop227" />
      <stop
         offset="0.99760002"
         style="stop-color:#b7c3f1;stop-opacity:1;"
         id="stop228" />
      <stop
         offset="1"
         style="stop-color:#bbc7f1;stop-opacity:1;"
         id="stop229" />
    </radialGradient>
    <clipPath
       id="SVGID_00000008129362048661921800000004072279959194290067_">
      <use
         xlink:href="#SVGID_00000010301370525210359170000018193401282846475148_"
         style="overflow:visible"
         id="use221" />
    </clipPath>
    <linearGradient
       id="SVGID_00000160166428037016873710000009672122682311972241_"
       gradientUnits="userSpaceOnUse"
       x1="500.66129"
       y1="269.13211"
       x2="533.24249"
       y2="269.13211">
      <stop
         offset="0"
         style="stop-color:#406DFB"
         id="stop232" />
      <stop
         offset="1"
         style="stop-color:#450651"
         id="stop233" />
    </linearGradient>
    <linearGradient
       id="SVGID_00000083811488909340411300000008930722149084202627_"
       gradientUnits="userSpaceOnUse"
       x1="-520.83649"
       y1="-1365.9956"
       x2="-500.39249"
       y2="-1365.9956"
       gradientTransform="matrix(-0.5112,0.8595,-0.8595,-0.5112,-982.7766,-35.4035)">
      <stop
         offset="0"
         style="stop-color:#406DFB"
         id="stop234" />
      <stop
         offset="1"
         style="stop-color:#450651"
         id="stop235" />
    </linearGradient>
    <path
       id="SVGID_00000010301370525210359170000018193401282846475148_"
       d="M 543.56,215.007 C 543.56,264.366 510.307,284.542 496.101,284.542 480.816,284.542 448.642,258.605 448.642,215.007 448.642,187.739 470.719,162.768 496.101,162.768 521.483,162.768 543.56,187.738 543.56,215.007 Z" />
    <linearGradient
       id="linearGradient1"
       inkscape:collect="always">
      <stop
         style="stop-color:#ffffff;stop-opacity:0;"
         offset="0"
         id="stop5-4" />
      <stop
         style="stop-color:#727272;stop-opacity:0.53333336;"
         offset="1"
         id="stop6-8" />
    </linearGradient>
    <radialGradient
       inkscape:collect="always"
       xlink:href="#linearGradient1"
       id="radialGradient1"
       cx="1071.2629"
       cy="1067.33"
       fx="1071.2629"
       fy="1067.33"
       r="977.72803"
       gradientTransform="matrix(1,0,0,0.93303557,0,71.473147)"
       gradientUnits="userSpaceOnUse" />
    <radialGradient
       inkscape:collect="always"
       xlink:href="#linearGradient1"
       id="radialGradient2"
       cx="1071.2629"
       cy="1067.33"
       fx="1071.2629"
       fy="1067.33"
       r="977.72803"
       gradientTransform="matrix(1,0,0,0.93303557,0,71.473147)"
       gradientUnits="userSpaceOnUse" />
    <radialGradient
       inkscape:collect="always"
       xlink:href="#linearGradient1"
       id="radialGradient4"
       cx="1071.2629"
       cy="1067.33"
       fx="1071.2629"
       fy="1067.33"
       r="977.72803"
       gradientTransform="matrix(1,0,0,0.93303557,0,71.473147)"
       gradientUnits="userSpaceOnUse" />
    <radialGradient
       inkscape:collect="always"
       xlink:href="#linearGradient1"
       id="radialGradient8"
       cx="1071.2629"
       cy="1067.33"
       fx="1071.2629"
       fy="1067.33"
       r="977.72803"
       gradientTransform="matrix(1,0,0,0.93303557,0,71.473147)"
       gradientUnits="userSpaceOnUse" />
    <radialGradient
       inkscape:collect="always"
       xlink:href="#linearGradient1"
       id="radialGradient10"
       cx="1071.2629"
       cy="1067.33"
       fx="1071.2629"
       fy="1067.33"
       r="977.72803"
       gradientTransform="matrix(1,0,0,0.93303557,0,71.473147)"
       gradientUnits="userSpaceOnUse" />
    <radialGradient
       inkscape:collect="always"
       xlink:href="#linearGradient1"
       id="radialGradient12-9"
       cx="1071.2629"
       cy="1067.33"
       fx="1071.2629"
       fy="1067.33"
       r="977.72803"
       gradientTransform="matrix(1,0,0,0.93303557,0,71.473147)"
       gradientUnits="userSpaceOnUse" />
    <radialGradient
       inkscape:collect="always"
       xlink:href="#linearGradient1"
       id="radialGradient14"
       cx="1071.2629"
       cy="1067.33"
       fx="1071.2629"
       fy="1067.33"
       r="977.72803"
       gradientTransform="matrix(1,0,0,0.93303557,0,71.473147)"
       gradientUnits="userSpaceOnUse" />
    <radialGradient
       inkscape:collect="always"
       xlink:href="#linearGradient1"
       id="radialGradient16"
       cx="1071.2629"
       cy="1067.33"
       fx="1071.2629"
       fy="1067.33"
       r="977.72803"
       gradientTransform="matrix(1,0,0,0.93303557,0,71.473147)"
       gradientUnits="userSpaceOnUse" />
    <radialGradient
       inkscape:collect="always"
       xlink:href="#linearGradient1"
       id="radialGradient18"
       cx="1071.2629"
       cy="1067.33"
       fx="1071.2629"
       fy="1067.33"
       r="977.72803"
       gradientTransform="matrix(1,0,0,0.93303557,0,71.473147)"
       gradientUnits="userSpaceOnUse" />
    <radialGradient
       inkscape:collect="always"
       xlink:href="#linearGradient37"
       id="radialGradient19"
       cx="1071.2629"
       cy="1067.33"
       fx="1071.2629"
       fy="1067.33"
       r="977.72803"
       gradientTransform="matrix(1,0,0,0.93303557,0,71.473147)"
       gradientUnits="userSpaceOnUse" />
    <radialGradient
       inkscape:collect="always"
       xlink:href="#linearGradient44"
       id="radialGradient28"
       gradientUnits="userSpaceOnUse"
       gradientTransform="matrix(1,0,0,0.93303557,0,71.473147)"
       cx="1071.2629"
       cy="1067.33"
       fx="1071.2629"
       fy="1067.33"
       r="977.72803" />
    <radialGradient
       inkscape:collect="always"
       xlink:href="#linearGradient18"
       id="radialGradient29"
       gradientUnits="userSpaceOnUse"
       gradientTransform="matrix(1,0,0,0.93303557,0,71.473147)"
       cx="1071.2629"
       cy="1067.33"
       fx="1071.2629"
       fy="1067.33"
       r="977.72803" />
    <radialGradient
       inkscape:collect="always"
       xlink:href="#linearGradient18"
       id="radialGradient30"
       gradientUnits="userSpaceOnUse"
       gradientTransform="matrix(1,0,0,0.93303557,0,71.473147)"
       cx="1071.2629"
       cy="1067.33"
       fx="1071.2629"
       fy="1067.33"
       r="977.72803" />
    <radialGradient
       inkscape:collect="always"
       xlink:href="#linearGradient18"
       id="radialGradient31"
       gradientUnits="userSpaceOnUse"
       gradientTransform="matrix(1,0,0,0.93303557,0,71.473147)"
       cx="1071.2629"
       cy="1067.33"
       fx="1071.2629"
       fy="1067.33"
       r="977.72803" />
    <radialGradient
       inkscape:collect="always"
       xlink:href="#linearGradient18"
       id="radialGradient32"
       gradientUnits="userSpaceOnUse"
       gradientTransform="matrix(1,0,0,0.93303557,0,71.473147)"
       cx="1071.2629"
       cy="1067.33"
       fx="1071.2629"
       fy="1067.33"
       r="977.72803" />
    <radialGradient
       inkscape:collect="always"
       xlink:href="#linearGradient18"
       id="radialGradient33"
       gradientUnits="userSpaceOnUse"
       gradientTransform="matrix(1,0,0,0.93303557,0,71.473147)"
       cx="1071.2629"
       cy="1067.33"
       fx="1071.2629"
       fy="1067.33"
       r="977.72803" />
    <radialGradient
       inkscape:collect="always"
       xlink:href="#linearGradient18"
       id="radialGradient34"
       gradientUnits="userSpaceOnUse"
       gradientTransform="matrix(1,0,0,0.93303557,0,71.473147)"
       cx="1071.2629"
       cy="1067.33"
       fx="1071.2629"
       fy="1067.33"
       r="977.72803" />
    <radialGradient
       inkscape:collect="always"
       xlink:href="#linearGradient18"
       id="radialGradient35"
       gradientUnits="userSpaceOnUse"
       gradientTransform="matrix(1,0,0,0.93303557,0,71.473147)"
       cx="1071.2629"
       cy="1067.33"
       fx="1071.2629"
       fy="1067.33"
       r="977.72803" />
    <radialGradient
       inkscape:collect="always"
       xlink:href="#linearGradient18"
       id="radialGradient36"
       gradientUnits="userSpaceOnUse"
       gradientTransform="matrix(1,0,0,0.93303557,0,71.473147)"
       cx="1071.2629"
       cy="1067.33"
       fx="1071.2629"
       fy="1067.33"
       r="977.72803" />
  </defs>
  <rect
     style="opacity:0.8;fill:#00bfff;fill-opacity:1;stroke-width:0.249717"
     id="rect1"
     width="37"
     height="36.999767"
     x="0"
     y="0"
     inkscape:label="bg" />
  <g
     inkscape:label="Layer 1"
     inkscape:groupmode="layer"
     id="layer1"
     transform="translate(-107.86249,-41.716666)">
    <g
       id="g239"
       transform="matrix(0.26458333,0,0,0.26458333,-4.8975646,0.31547046)"
       inkscape:label="balloon">
      <g
         id="g238">
        <linearGradient
           id="linearGradient3"
           gradientUnits="userSpaceOnUse"
           x1="496.5159"
           y1="290.02841"
           x2="496.5159"
           y2="283.5451">
          <stop
             offset="0.0654"
             style="stop-color:#72A1EC"
             id="stop1" />
          <stop
             offset="0.3959"
             style="stop-color:#668BF0"
             id="stop2" />
          <stop
             offset="1"
             style="stop-color:#4A59F9"
             id="stop3" />
        </linearGradient>
        <path
           style="fill:url(#SVGID_00000044899036830253578930000003099350347836967609_)"
           d="M 490.609,289.452 C 490.609,289.452 497.668,290.749 502.423,289.452 502.423,289.452 501.415,283.545 496.516,283.545 491.617,283.545 490.609,289.452 490.609,289.452 Z"
           id="path220" />
        <path
           style="opacity:0.49;fill:#6b63d9;fill-opacity:1"
           d="M 502.423,289.452 C 502.423,289.452 495.556,286.932 490.609,289.452 490.609,289.452 497.668,290.749 502.423,289.452 Z"
           id="path221" />
        <linearGradient
           id="SVGID_00000158711372040064575980000005186155442138308494_"
           gradientUnits="userSpaceOnUse"
           x1="612.37842"
           y1="224.586"
           x2="661.38092"
           y2="271.8324"
           gradientTransform="matrix(0.8571,0,0,0.889,-60.4375,-23.1235)">
          <stop
             offset="0"
             style="stop-color:#68DBCA"
             id="stop230" />
          <stop
             offset="1"
             style="stop-color:#000000"
             id="stop231" />
        </linearGradient>
        <linearGradient
           id="linearGradient14"
           gradientUnits="userSpaceOnUse"
           x1="500.66129"
           y1="269.13211"
           x2="533.24249"
           y2="269.13211">
          <stop
             offset="0"
             style="stop-color:#406DFB"
             id="stop13" />
          <stop
             offset="1"
             style="stop-color:#450651"
             id="stop14" />
        </linearGradient>
        <linearGradient
           id="linearGradient16"
           gradientUnits="userSpaceOnUse"
           x1="-520.83649"
           y1="-1365.9956"
           x2="-500.39249"
           y2="-1365.9956"
           gradientTransform="matrix(-0.5112,0.8595,-0.8595,-0.5112,-982.7766,-35.4035)">
          <stop
             offset="0"
             style="stop-color:#406DFB"
             id="stop15" />
          <stop
             offset="1"
             style="stop-color:#450651"
             id="stop16" />
        </linearGradient>
        <ellipse
           style="fill:url(#SVGID_00000165194548797911044740000000758655264289964966_)"
           cx="496.27701"
           cy="223.541"
           rx="50.167999"
           ry="62.645"
           clip-path="url(#SVGID_00000008129362048661921800000004072279959194290067_)"
           id="ellipse229"
           transform="translate(3.92126e-6)" />
        <path
           style="opacity:0.81;fill:#ffffff"
           d="M 472.311,180.411 C 475.056,175.055 480.446,175.786 482.349,177.235 482.349,177.236 468.469,187.908 472.311,180.411 Z"
           id="path237" />
      </g>
    </g>
    <g
       id="g19"
       style="fill:url(#radialGradient19);fill-opacity:1"
       transform="matrix(0.01765868,0,0,0.01765884,107.4454,41.368851)"
       inkscape:label="pop">
      <path
         style="fill:url(#radialGradient28);fill-opacity:1"
         d="M 420.941,532.389 C 609.759,910.737 394.874,966.189 189.842,998.227 493.432,1080.727 573.204,1247.61 303.536,1441.334 723.927,1259.547 811.596,1486.19 735.292,1698.867 920.484,1507.23 1019,1388.648 1151.396,1746.74 1183.477,1502.957 1257.378,1423.463 1594.977,1562.53 1202.595,1211.533 1796.455,1267.427 1910.378,1289.841 1632.856,1168.655 1572.261,1058.821 1910.378,934.126 1534.584,967.51 1594.977,812.649 1822.436,614.276 1549.545,740.694 1361.964,719.672 1519.248,407.41 1293.702,651.503 1185.116,680.028 1163.248,324.935 1044.749,661.157 934.682,687.875 761.789,361.968 802.115,718.172 682.035,768.602 420.941,532.389 Z"
         id="path11-1" />
      <polygon
         style="fill:url(#radialGradient29);fill-opacity:1"
         points="1459.735,159.439 1328.789,163.804 1289.506,456.25 "
         id="polygon12" />
      <polygon
         style="fill:url(#radialGradient30);fill-opacity:1"
         points="927.222,1979.585 809.371,1927.206 966.506,1639.126 "
         id="polygon13" />
      <polygon
         style="fill:url(#radialGradient31);fill-opacity:1"
         points="224.481,1953.396 154.643,1796.261 656.601,1490.721 "
         id="polygon14" />
      <polygon
         style="fill:url(#radialGradient32);fill-opacity:1"
         points="2048.991,264.197 1555.762,565.372 1874.396,172.534 "
         id="polygon15" />
      <polygon
         style="fill:url(#radialGradient33);fill-opacity:1"
         points="1974.788,1556.194 1629.964,1420.883 1852.572,1656.586 "
         id="polygon16" />
      <polygon
         style="fill:url(#radialGradient34);fill-opacity:1"
         points="516.926,155.075 412.17,259.832 617.318,504.264 "
         id="polygon17" />
      <polygon
         style="fill:url(#radialGradient35);fill-opacity:1"
         points="93.535,744.331 102.265,600.29 412.17,779.249 "
         id="polygon18" />
      <polygon
         style="fill:url(#radialGradient36);fill-opacity:1"
         points="1638.694,1848.639 1455.37,1896.653 1363.708,1578.018 "
         id="polygon19" />
    </g>
    <g
       id="g14"
       transform="matrix(0.0086254,0.00231117,-0.00231117,0.0086254,128.19332,45.298059)"
       inkscape:label="pin">
      <g
         id="g13">
        <path
           style="fill:#d6d6d6"
           d="M 885.182,1318.724 604.13,1599.776 C 515.692,1688.214 424.592,1745.266 364.558,1777.245 341.25,1789.659 315.98,1764.328 328.425,1741.051 360.602,1680.911 417.852,1589.613 505.909,1501.555 L 786.961,1220.503 Z"
           id="path1-2" />
        <path
           style="fill:#b7bec4"
           d="M 820.966,1382.942 604.133,1599.775 C 515.692,1688.216 424.594,1745.261 364.561,1777.246 341.254,1789.662 315.979,1764.325 328.425,1741.049 332.193,1734.002 336.306,1726.535 340.779,1718.692 338.703,1735.535 356.925,1750.217 373.92,1741.172 424.624,1714.166 501.576,1665.966 576.276,1591.266 L 758.443,1409.099 C 706.332,1357.622 682.024,1325.441 682.024,1325.441 L 722.744,1284.721 Z"
           id="path2" />
        <path
           style="fill:#e53c3c"
           d="M 1350.002,1199.1 C 1422.24,1331.633 1438.893,1449.21 1381.732,1506.371 L 1308.401,1579.702 C 1216.061,1672.042 966.053,1571.753 749.993,1355.692 533.933,1139.631 433.643,889.624 525.983,797.284 L 599.314,723.953 C 655.913,667.354 771.738,683.126 902.665,753.563 Z"
           id="path3" />
        <path
           style="fill:#c43939"
           d="M 1381.732,1506.371 1308.403,1579.7 C 1216.064,1672.039 966.052,1571.75 749.994,1355.691 565.239,1170.936 465.141,961.357 497.746,846.768 487.667,957.796 579.638,1136.454 738.643,1295.459 940.746,1497.562 1174.597,1591.372 1260.97,1504.999 L 1329.566,1436.403 C 1382.974,1382.995 1367.494,1273.216 1300.132,1149.42 L 1350.009,1199.097 C 1422.234,1331.634 1438.893,1449.21 1381.732,1506.371 Z"
           id="path4" />
        <path
           style="fill:#c43939"
           d="M 1665.255,834.113 C 1665.255,834.113 1409.272,1139.829 1318.075,1231.027 1295.639,1253.464 1264.033,1264.212 1232.584,1260 1182.608,1253.307 1103.218,1220.402 992.74,1109.925 881.31,998.495 848.797,918.691 842.498,868.796 838.581,837.772 849.519,806.71 871.631,784.598 979.686,676.543 1270.019,435.857 1270.019,435.857 Z"
           id="path5" />
        <path
           style="fill:#a83131"
           d="M 1318.077,1231.03 C 1295.643,1253.464 1264.034,1264.21 1232.585,1259.997 1182.609,1253.31 1103.221,1220.399 992.745,1109.923 881.311,998.49 848.798,918.688 842.502,868.796 841.491,860.769 841.468,852.735 842.387,844.861 884.352,947.824 981.876,1050.526 1062.987,1114.158 1138.522,1173.41 1247.076,1163.552 1310.754,1091.709 1360.845,1035.184 1465.094,916.888 1510.085,861.221 1461.526,831.044 1236.345,650.287 1204.177,488.969 1243.538,456.9 1270.016,435.86 1270.016,435.86 L 1665.254,834.115 C 1665.253,834.115 1409.275,1139.832 1318.077,1231.03 Z"
           id="path6" />
        <path
           style="fill:#e53c3c"
           d="M 1223.537,295.622 C 1154.314,364.845 1229.496,552.26 1391.461,714.224 1553.426,876.188 1740.841,951.371 1810.063,882.148 L 1865.031,827.18 C 1934.254,757.957 1859.072,570.542 1697.107,408.578 1535.142,246.614 1347.727,171.431 1278.505,240.654 Z"
           id="path7" />
        <path
           style="fill:#c43939"
           d="M 1865.036,827.176 1810.066,882.146 C 1740.842,951.37 1553.422,876.187 1391.46,714.226 1257.072,579.838 1182.433,427.918 1200.47,340.549 1211.599,414.223 1251.679,481.157 1296.899,540.822 1390.131,663.837 1537.962,789.577 1667.312,843.523 1707.357,860.224 1753.563,850.738 1783.986,819.804 1800.992,802.512 1814.078,789.829 1832.609,766.226 1832.609,766.226 1896.98,629.513 1591.763,317.618 1627.11,343.652 1662.68,374.151 1697.108,408.579 1859.069,570.539 1934.252,757.96 1865.036,827.176 Z"
           id="path8" />
        <g
           id="g9">
          <path
             style="fill:#ffffff"
             d="M 1519.89,323.673 C 1524.026,319.537 1522.72,312.005 1517.187,307.95 1482.374,282.438 1441.49,266.219 1401.429,263.048 1357.308,259.556 1314.533,272.132 1283.912,298.719 1272.566,308.57 1262.573,324.893 1271.579,339.887 1279.894,353.73 1299.687,356.266 1312.21,349.891 1324.733,343.516 1332.415,331.171 1341.761,320.926 1379.257,279.82 1452.32,290.008 1507.855,324.362 1512.006,326.93 1516.929,326.634 1519.89,323.673 Z"
             id="path9" />
        </g>
        <g
           id="g10">
          <path
             style="fill:#ffffff"
             d="M 841.572,780.309 C 844.524,775.489 843.022,769.191 838.22,766.21 807.21,746.962 772.558,734.837 738.502,732.141 694.381,728.649 651.606,741.225 620.985,767.812 609.639,777.663 599.646,793.986 608.652,808.98 616.967,822.823 636.76,825.359 649.283,818.984 661.806,812.609 669.488,800.264 678.834,790.019 712.673,752.922 775.48,757.602 828.227,784.118 832.988,786.511 838.788,784.854 841.572,780.309 Z"
             id="path10" />
        </g>
        <g
           id="g11">
          <path
             style="fill:#ffffff"
             d="M 1160.437,583.129 C 1166.968,585.786 1168.532,594.325 1163.365,599.124 1091.473,665.897 1019.58,732.671 947.688,799.457 941.335,805.354 932.212,811.623 924.816,807.094 919.479,803.829 918.398,796.14 920.73,790.341 923.056,784.535 927.911,780.189 932.609,776.064 1005.146,712.287 1077.69,648.515 1150.24,584.738 1152.984,582.326 1156.855,581.673 1160.239,583.049 1160.305,583.075 1160.371,583.102 1160.437,583.129 Z"
             id="path11" />
        </g>
        <g
           id="g12">
          <path
             style="fill:#ffffff"
             d="M 505.735,1534.242 C 554.775,1484.073 603.817,1433.905 652.864,1383.734 655.418,1381.121 659.23,1380.176 662.708,1381.293 L 662.911,1381.358 C 669.624,1383.514 671.828,1391.911 667.039,1397.086 619.366,1448.6 571.693,1500.113 524.02,1551.632 519.274,1556.76 511.264,1557.056 506.154,1552.291 V 1552.291 C 500.971,1547.459 500.782,1539.309 505.735,1534.242 Z"
             id="path12" />
        </g>
      </g>
    </g>
  </g>
</svg>
