<?xml version="1.0" encoding="UTF-8" standalone="no"?>
<!-- Generator: Adobe Illustrator 27.5.0, SVG Export Plug-In . SVG Version: 6.00 Build 0)  -->

<svg
   version="1.1"
   x="0px"
   y="0px"
   viewBox="0 0 1565.6371 1565.6033"
   xml:space="preserve"
   id="svg14"
   sodipodi:docname="pin.svg"
   inkscape:version="1.4.3 (0d15f75, 2025-12-25)"
   width="1565.6371"
   height="1565.6033"
   xmlns:inkscape="http://www.inkscape.org/namespaces/inkscape"
   xmlns:sodipodi="http://sodipodi.sourceforge.net/DTD/sodipodi-0.dtd"
   xmlns="http://www.w3.org/2000/svg"
   xmlns:svg="http://www.w3.org/2000/svg"><defs
   id="defs14" /><sodipodi:namedview
   id="namedview14"
   pagecolor="#ffffff"
   bordercolor="#000000"
   borderopacity="0.25"
   inkscape:showpageshadow="2"
   inkscape:pageopacity="0.0"
   inkscape:pagecheckerboard="0"
   inkscape:deskcolor="#d1d1d1"
   inkscape:zoom="0.37045455"
   inkscape:cx="777.42331"
   inkscape:cy="884.04908"
   inkscape:window-width="1920"
   inkscape:window-height="1017"
   inkscape:window-x="-8"
   inkscape:window-y="-8"
   inkscape:window-maximized="1"
   inkscape:current-layer="g14" />

<g
   id="Objects"
   transform="translate(-325.1386,-214.91025)">
	<g
   id="g14">
		<g
   id="g13">
			<path
   style="fill:#d6d6d6"
   d="M 885.182,1318.724 604.13,1599.776 C 515.692,1688.214 424.592,1745.266 364.558,1777.245 341.25,1789.659 315.98,1764.328 328.425,1741.051 360.602,1680.911 417.852,1589.613 505.909,1501.555 L 786.961,1220.503 Z"
   id="path1" />
			<path
   style="fill:#b7bec4"
   d="M 820.966,1382.942 604.133,1599.775 C 515.692,1688.216 424.594,1745.261 364.561,1777.246 341.254,1789.662 315.979,1764.325 328.425,1741.049 332.193,1734.002 336.306,1726.535 340.779,1718.692 338.703,1735.535 356.925,1750.217 373.92,1741.172 424.624,1714.166 501.576,1665.966 576.276,1591.266 L 758.443,1409.099 C 706.332,1357.622 682.024,1325.441 682.024,1325.441 L 722.744,1284.721 Z"
   id="path2" />
			<path
   style="fill:#e53c3c"
   d="M 1350.002,1199.1 C 1422.24,1331.633 1438.893,1449.21 1381.732,1506.371 L 1308.401,1579.702 C 1216.061,1672.042 966.053,1571.753 749.993,1355.692 533.933,1139.631 433.643,889.624 525.983,797.284 L 599.314,723.953 C 655.913,667.354 771.738,683.126 902.665,753.563 Z"
   id="path3" />
			<path
   style="fill:#c43939"
   d="M 1381.732,1506.371 1308.403,1579.7 C 1216.064,1672.039 966.052,1571.75 749.994,1355.691 565.239,1170.936 465.141,961.357 497.746,846.768 487.667,957.796 579.638,1136.454 738.643,1295.459 940.746,1497.562 1174.597,1591.372 1260.97,1504.999 L 1329.566,1436.403 C 1382.974,1382.995 1367.494,1273.216 1300.132,1149.42 L 1350.009,1199.097 C 1422.234,1331.634 1438.893,1449.21 1381.732,1506.371 Z"
   id="path4" />
			<path
   style="fill:#c43939"
   d="M 1665.255,834.113 C 1665.255,834.113 1409.272,1139.829 1318.075,1231.027 1295.639,1253.464 1264.033,1264.212 1232.584,1260 1182.608,1253.307 1103.218,1220.402 992.74,1109.925 881.31,998.495 848.797,918.691 842.498,868.796 838.581,837.772 849.519,806.71 871.631,784.598 979.686,676.543 1270.019,435.857 1270.019,435.857 Z"
   id="path5" />
			<path
   style="fill:#a83131"
   d="M 1318.077,1231.03 C 1295.643,1253.464 1264.034,1264.21 1232.585,1259.997 1182.609,1253.31 1103.221,1220.399 992.745,1109.923 881.311,998.49 848.798,918.688 842.502,868.796 841.491,860.769 841.468,852.735 842.387,844.861 884.352,947.824 981.876,1050.526 1062.987,1114.158 1138.522,1173.41 1247.076,1163.552 1310.754,1091.709 1360.845,1035.184 1465.094,916.888 1510.085,861.221 1461.526,831.044 1236.345,650.287 1204.177,488.969 1243.538,456.9 1270.016,435.86 1270.016,435.86 L 1665.254,834.115 C 1665.253,834.115 1409.275,1139.832 1318.077,1231.03 Z"
   id="path6" />
			<path
   style="fill:#e53c3c"
   d="M 1223.537,295.622 C 1154.314,364.845 1229.496,552.26 1391.461,714.224 1553.426,876.188 1740.841,951.371 1810.063,882.148 L 1865.031,827.18 C 1934.254,757.957 1859.072,570.542 1697.107,408.578 1535.142,246.614 1347.727,171.431 1278.505,240.654 Z"
   id="path7" />
			<path
   style="fill:#c43939"
   d="M 1865.036,827.176 1810.066,882.146 C 1740.842,951.37 1553.422,876.187 1391.46,714.226 1257.072,579.838 1182.433,427.918 1200.47,340.549 1211.599,414.223 1251.679,481.157 1296.899,540.822 1390.131,663.837 1537.962,789.577 1667.312,843.523 1707.357,860.224 1753.563,850.738 1783.986,819.804 1800.992,802.512 1814.078,789.829 1832.609,766.226 1832.609,766.226 1896.98,629.513 1591.763,317.618 1627.11,343.652 1662.68,374.151 1697.108,408.579 1859.069,570.539 1934.252,757.96 1865.036,827.176 Z"
   id="path8" />
			<g
   id="g9">
				<path
   style="fill:#ffffff"
   d="M 1519.89,323.673 C 1524.026,319.537 1522.72,312.005 1517.187,307.95 1482.374,282.438 1441.49,266.219 1401.429,263.048 1357.308,259.556 1314.533,272.132 1283.912,298.719 1272.566,308.57 1262.573,324.893 1271.579,339.887 1279.894,353.73 1299.687,356.266 1312.21,349.891 1324.733,343.516 1332.415,331.171 1341.761,320.926 1379.257,279.82 1452.32,290.008 1507.855,324.362 1512.006,326.93 1516.929,326.634 1519.89,323.673 Z"
   id="path9" />
			</g>
			<g
   id="g10">
				<path
   style="fill:#ffffff"
   d="M 841.572,780.309 C 844.524,775.489 843.022,769.191 838.22,766.21 807.21,746.962 772.558,734.837 738.502,732.141 694.381,728.649 651.606,741.225 620.985,767.812 609.639,777.663 599.646,793.986 608.652,808.98 616.967,822.823 636.76,825.359 649.283,818.984 661.806,812.609 669.488,800.264 678.834,790.019 712.673,752.922 775.48,757.602 828.227,784.118 832.988,786.511 838.788,784.854 841.572,780.309 Z"
   id="path10" />
			</g>
			<g
   id="g11">
				<path
   style="fill:#ffffff"
   d="M 1160.437,583.129 C 1166.968,585.786 1168.532,594.325 1163.365,599.124 1091.473,665.897 1019.58,732.671 947.688,799.457 941.335,805.354 932.212,811.623 924.816,807.094 919.479,803.829 918.398,796.14 920.73,790.341 923.056,784.535 927.911,780.189 932.609,776.064 1005.146,712.287 1077.69,648.515 1150.24,584.738 1152.984,582.326 1156.855,581.673 1160.239,583.049 1160.305,583.075 1160.371,583.102 1160.437,583.129 Z"
   id="path11" />
			</g>
			<g
   id="g12">
				<path
   style="fill:#ffffff"
   d="M 505.735,1534.242 C 554.775,1484.073 603.817,1433.905 652.864,1383.734 655.418,1381.121 659.23,1380.176 662.708,1381.293 L 662.911,1381.358 C 669.624,1383.514 671.828,1391.911 667.039,1397.086 619.366,1448.6 571.693,1500.113 524.02,1551.632 519.274,1556.76 511.264,1557.056 506.154,1552.291 V 1552.291 C 500.971,1547.459 500.782,1539.309 505.735,1534.242 Z"
   id="path12" />
			</g>
		</g>
		
	</g>
</g>
</svg>
