<?xml version="1.0" encoding="UTF-8" standalone="no"?>
<!-- Generator: Adobe Illustrator 27.5.0, SVG Export Plug-In . SVG Version: 6.00 Build 0)  -->

<svg
   version="1.1"
   id="Layer_1"
   x="0px"
   y="0px"
   viewBox="0 0 1955.4561 1824.51"
   xml:space="preserve"
   sodipodi:docname="pop.svg"
   width="1955.4561"
   height="1824.51"
   inkscape:version="1.4.3 (0d15f75, 2025-12-25)"
   xmlns:inkscape="http://www.inkscape.org/namespaces/inkscape"
   xmlns:sodipodi="http://sodipodi.sourceforge.net/DTD/sodipodi-0.dtd"
   xmlns:xlink="http://www.w3.org/1999/xlink"
   xmlns="http://www.w3.org/2000/svg"
   xmlns:svg="http://www.w3.org/2000/svg"><defs
   id="defs20"><linearGradient
     id="linearGradient1"
     inkscape:collect="always"><stop
       style="stop-color:#ffffff;stop-opacity:0;"
       offset="0"
       id="stop5" /><stop
       style="stop-color:#ffffff;stop-opacity:0.53333336;"
       offset="1"
       id="stop6" /></linearGradient><radialGradient
     inkscape:collect="always"
     xlink:href="#linearGradient1"
     id="radialGradient6"
     cx="1071.263"
     cy="1067.33"
     fx="1071.263"
     fy="1067.33"
     r="977.728"
     gradientTransform="matrix(1,0,0,0.93303557,0,71.473147)"
     gradientUnits="userSpaceOnUse" /></defs><sodipodi:namedview
   id="namedview20"
   pagecolor="#ffffff"
   bordercolor="#000000"
   borderopacity="0.25"
   inkscape:showpageshadow="2"
   inkscape:pageopacity="0.0"
   inkscape:pagecheckerboard="true"
   inkscape:deskcolor="#d1d1d1"
   inkscape:document-units="pt"
   inkscape:zoom="0.27157965"
   inkscape:cx="913.17593"
   inkscape:cy="973.93159"
   inkscape:window-width="1920"
   inkscape:window-height="1017"
   inkscape:window-x="-8"
   inkscape:window-y="-8"
   inkscape:window-maximized="1"
   inkscape:current-layer="g20"
   showgrid="false" />
<g
   id="g20"
   transform="translate(-93.535,-155.075)">
	<radialGradient
   id="SVGID_1_"
   cx="1060.6602"
   cy="1060.6602"
   r="2273.2917"
   gradientUnits="userSpaceOnUse">
		<stop
   offset="0"
   style="stop-color:#FF6100"
   id="stop1" />
		<stop
   offset="0.154"
   style="stop-color:#FF5305"
   id="stop2" />
		<stop
   offset="0.718"
   style="stop-color:#FF2414"
   id="stop3" />
		<stop
   offset="1"
   style="stop-color:#FF121A"
   id="stop4" />
	</radialGradient>
	
	
	<g
   id="g19"
   style="fill:url(#radialGradient6);fill-opacity:1">
		<path
   style="fill:url(#radialGradient6);fill-opacity:1"
   d="M 420.941,532.389 C 609.759,910.737 394.874,966.189 189.842,998.227 493.432,1080.727 573.204,1247.61 303.536,1441.334 723.927,1259.547 811.596,1486.19 735.292,1698.867 920.484,1507.23 1019,1388.648 1151.396,1746.74 1183.477,1502.957 1257.378,1423.463 1594.977,1562.53 1202.595,1211.533 1796.455,1267.427 1910.378,1289.841 1632.856,1168.655 1572.261,1058.821 1910.378,934.126 1534.584,967.51 1594.977,812.649 1822.436,614.276 1549.545,740.694 1361.964,719.672 1519.248,407.41 1293.702,651.503 1185.116,680.028 1163.248,324.935 1044.749,661.157 934.682,687.875 761.789,361.968 802.115,718.172 682.035,768.602 420.941,532.389 Z"
   id="path11" />
		<polygon
   style="fill:url(#radialGradient6);fill-opacity:1"
   points="1459.735,159.439 1328.789,163.804 1289.506,456.25 "
   id="polygon12" />
		<polygon
   style="fill:url(#radialGradient6);fill-opacity:1"
   points="927.222,1979.585 809.371,1927.206 966.506,1639.126 "
   id="polygon13" />
		<polygon
   style="fill:url(#radialGradient6);fill-opacity:1"
   points="224.481,1953.396 154.643,1796.261 656.601,1490.721 "
   id="polygon14" />
		<polygon
   style="fill:url(#radialGradient6);fill-opacity:1"
   points="2048.991,264.197 1555.762,565.372 1874.396,172.534 "
   id="polygon15" />
		<polygon
   style="fill:url(#radialGradient6);fill-opacity:1"
   points="1974.788,1556.194 1629.964,1420.883 1852.572,1656.586 "
   id="polygon16" />
		<polygon
   style="fill:url(#radialGradient6);fill-opacity:1"
   points="516.926,155.075 412.17,259.832 617.318,504.264 "
   id="polygon17" />
		<polygon
   style="fill:url(#radialGradient6);fill-opacity:1"
   points="93.535,744.331 102.265,600.29 412.17,779.249 "
   id="polygon18" />
		<polygon
   style="fill:url(#radialGradient6);fill-opacity:1"
   points="1638.694,1848.639 1455.37,1896.653 1363.708,1578.018 "
   id="polygon19" />
	</g>
</g>
</svg>
